<mxfile host="app.diagrams.net" modified="2023-09-09T17:14:50.478Z" agent="Mozilla/5.0 (Macintosh; Intel Mac OS X 10_15_7) AppleWebKit/537.36 (KHTML, like Gecko) Chrome/116.0.0.0 Safari/537.36" etag="WjSJFn6Yew3F0ESVI34p" version="21.7.2" type="github" pages="3">
  <diagram id="k4P_a6CrURj8pyeMWI1F" name="Components ">
    <mxGraphModel dx="910" dy="597" grid="1" gridSize="10" guides="1" tooltips="1" connect="1" arrows="1" fold="1" page="1" pageScale="1" pageWidth="850" pageHeight="1100" math="0" shadow="0">
      <root>
        <mxCell id="0" />
        <mxCell id="1" parent="0" />
        <mxCell id="6DhdfcgtzrANNL3QyyNV-1" value="GitHub&amp;nbsp;&lt;br&gt;Repo" style="shape=cylinder3;whiteSpace=wrap;html=1;boundedLbl=1;backgroundOutline=1;size=15;" vertex="1" parent="1">
          <mxGeometry x="120" y="90" width="110" height="90" as="geometry" />
        </mxCell>
        <mxCell id="6DhdfcgtzrANNL3QyyNV-8" value="Local Github runners&amp;nbsp;" style="sketch=0;pointerEvents=1;shadow=0;dashed=0;html=1;strokeColor=none;fillColor=#505050;labelPosition=center;verticalLabelPosition=bottom;verticalAlign=top;outlineConnect=0;align=center;shape=mxgraph.office.servers.server_farm;fillColor=#7FBA42;" vertex="1" parent="1">
          <mxGeometry x="190" y="320" width="250" height="140" as="geometry" />
        </mxCell>
        <mxCell id="6DhdfcgtzrANNL3QyyNV-10" value="" style="shape=link;html=1;rounded=0;" edge="1" parent="1">
          <mxGeometry width="100" relative="1" as="geometry">
            <mxPoint x="90" y="270" as="sourcePoint" />
            <mxPoint x="730" y="270" as="targetPoint" />
          </mxGeometry>
        </mxCell>
        <mxCell id="6DhdfcgtzrANNL3QyyNV-11" value="Regatta Server&amp;nbsp;" style="swimlane;whiteSpace=wrap;html=1;" vertex="1" parent="1">
          <mxGeometry x="50" y="510" width="280" height="200" as="geometry" />
        </mxCell>
        <mxCell id="6DhdfcgtzrANNL3QyyNV-2" value="" style="image;sketch=0;aspect=fixed;html=1;points=[];align=center;fontSize=12;image=img/lib/mscae/Docker.svg;" vertex="1" parent="6DhdfcgtzrANNL3QyyNV-11">
          <mxGeometry x="20" y="143.5" width="50" height="41" as="geometry" />
        </mxCell>
        <mxCell id="6DhdfcgtzrANNL3QyyNV-3" value="" style="image;sketch=0;aspect=fixed;html=1;points=[];align=center;fontSize=12;image=img/lib/mscae/Kubernetes.svg;" vertex="1" parent="6DhdfcgtzrANNL3QyyNV-11">
          <mxGeometry x="220" y="140" width="50" height="48" as="geometry" />
        </mxCell>
        <mxCell id="6DhdfcgtzrANNL3QyyNV-14" value="Each server is regsitered as&amp;nbsp;&lt;br&gt;a github runner&amp;nbsp;" style="text;html=1;align=center;verticalAlign=middle;resizable=0;points=[];autosize=1;strokeColor=none;fillColor=none;" vertex="1" parent="6DhdfcgtzrANNL3QyyNV-11">
          <mxGeometry x="20" y="25" width="180" height="40" as="geometry" />
        </mxCell>
        <mxCell id="6DhdfcgtzrANNL3QyyNV-15" value="Regatta&amp;nbsp; Network &amp;amp; Office&amp;nbsp;" style="text;html=1;align=center;verticalAlign=middle;resizable=0;points=[];autosize=1;strokeColor=none;fillColor=none;" vertex="1" parent="1">
          <mxGeometry x="195" y="248" width="170" height="30" as="geometry" />
        </mxCell>
        <mxCell id="RJmMK1OQjZs4rJ3X4yNz-3" value="Regatta Package Managers Servers&amp;nbsp;" style="swimlane;whiteSpace=wrap;html=1;" vertex="1" parent="1">
          <mxGeometry x="525" y="450" width="280" height="200" as="geometry" />
        </mxCell>
        <mxCell id="RJmMK1OQjZs4rJ3X4yNz-1" value="&lt;br&gt;&lt;br&gt;Regatta Docker Registry&lt;br&gt;" style="shape=datastore;whiteSpace=wrap;html=1;" vertex="1" parent="RJmMK1OQjZs4rJ3X4yNz-3">
          <mxGeometry x="10" y="100" width="60" height="60" as="geometry" />
        </mxCell>
        <mxCell id="RJmMK1OQjZs4rJ3X4yNz-2" value="&lt;br&gt;&lt;br&gt;Regatta Package Registry" style="shape=datastore;whiteSpace=wrap;html=1;" vertex="1" parent="RJmMK1OQjZs4rJ3X4yNz-3">
          <mxGeometry x="110" y="100" width="60" height="60" as="geometry" />
        </mxCell>
        <mxCell id="RJmMK1OQjZs4rJ3X4yNz-7" value="Stores all Artifacts in the build process" style="text;html=1;align=center;verticalAlign=middle;resizable=0;points=[];autosize=1;strokeColor=none;fillColor=none;" vertex="1" parent="RJmMK1OQjZs4rJ3X4yNz-3">
          <mxGeometry x="10" y="38" width="230" height="30" as="geometry" />
        </mxCell>
        <mxCell id="RJmMK1OQjZs4rJ3X4yNz-8" value="Regatta Monitoring / Grafana&amp;nbsp;" style="swimlane;whiteSpace=wrap;html=1;" vertex="1" parent="1">
          <mxGeometry x="35" y="790" width="280" height="200" as="geometry" />
        </mxCell>
        <mxCell id="RJmMK1OQjZs4rJ3X4yNz-11" value="Collecting all build metrics&amp;nbsp;&lt;br&gt;&lt;br&gt;Metrics RETENTION = 1 Month" style="text;html=1;align=center;verticalAlign=middle;resizable=0;points=[];autosize=1;strokeColor=none;fillColor=none;" vertex="1" parent="RJmMK1OQjZs4rJ3X4yNz-8">
          <mxGeometry x="15" y="30" width="190" height="60" as="geometry" />
        </mxCell>
        <mxCell id="RJmMK1OQjZs4rJ3X4yNz-12" value="Regatta Logging&amp;nbsp; / ELK Stack&amp;nbsp;" style="swimlane;whiteSpace=wrap;html=1;" vertex="1" parent="1">
          <mxGeometry x="390" y="790" width="280" height="200" as="geometry" />
        </mxCell>
        <mxCell id="RJmMK1OQjZs4rJ3X4yNz-13" value="Collecting all build metrics&amp;nbsp;&lt;br&gt;&lt;br&gt;Metrics RETENTION = 1 Month" style="text;html=1;align=center;verticalAlign=middle;resizable=0;points=[];autosize=1;strokeColor=none;fillColor=none;" vertex="1" parent="RJmMK1OQjZs4rJ3X4yNz-12">
          <mxGeometry x="15" y="30" width="190" height="60" as="geometry" />
        </mxCell>
      </root>
    </mxGraphModel>
  </diagram>
  <diagram name="E2E-Workflow" id="d9b1e647-80fa-b4a2-5024-87a742678bcc">
    <mxGraphModel dx="910" dy="597" grid="1" gridSize="10" guides="1" tooltips="1" connect="1" arrows="1" fold="1" page="1" pageScale="1" pageWidth="1100" pageHeight="850" background="none" math="0" shadow="0">
      <root>
        <mxCell id="0" />
        <mxCell id="1" parent="0" />
        <mxCell id="57fe6abec08f04cb-1" value="&lt;font style=&quot;font-size: 14px;&quot;&gt;&amp;nbsp; &amp;nbsp; &amp;nbsp;Build base image&lt;/font&gt;" style="shape=step;whiteSpace=wrap;html=1;fontSize=28;fillColor=#0080FF;fontColor=#FFFFFF;strokeColor=none;" parent="1" vertex="1">
          <mxGeometry x="90" y="180" width="170" height="80" as="geometry" />
        </mxCell>
        <mxCell id="57fe6abec08f04cb-2" value="&lt;font style=&quot;font-size: 14px;&quot;&gt;build product&lt;/font&gt;&amp;nbsp;" style="shape=step;whiteSpace=wrap;html=1;fontSize=28;fillColor=#0075E8;fontColor=#FFFFFF;strokeColor=none;" parent="1" vertex="1">
          <mxGeometry x="240" y="180" width="170" height="80" as="geometry" />
        </mxCell>
        <mxCell id="oG8u07YWVJC_rPQbSC51-1" style="edgeStyle=orthogonalEdgeStyle;rounded=0;orthogonalLoop=1;jettySize=auto;html=1;exitX=1;exitY=0.5;exitDx=0;exitDy=0;entryX=0.211;entryY=0.532;entryDx=0;entryDy=0;entryPerimeter=0;" edge="1" parent="1" source="57fe6abec08f04cb-3" target="57fe6abec08f04cb-4">
          <mxGeometry relative="1" as="geometry" />
        </mxCell>
        <mxCell id="57fe6abec08f04cb-3" value="&lt;font style=&quot;font-size: 14px;&quot;&gt;Regression&lt;/font&gt;" style="shape=step;whiteSpace=wrap;html=1;fontSize=28;fillColor=#0067CC;fontColor=#FFFFFF;strokeColor=none;" parent="1" vertex="1">
          <mxGeometry x="390" y="180" width="170" height="80" as="geometry" />
        </mxCell>
        <mxCell id="57fe6abec08f04cb-4" value="&lt;span style=&quot;font-size: 14px;&quot;&gt;E2E Tests&lt;/span&gt;" style="shape=step;whiteSpace=wrap;html=1;fontSize=28;fillColor=#0062C4;fontColor=#FFFFFF;strokeColor=none;" parent="1" vertex="1">
          <mxGeometry x="540" y="180" width="170" height="80" as="geometry" />
        </mxCell>
        <mxCell id="57fe6abec08f04cb-5" value="&lt;font size=&quot;3&quot;&gt;collect metrics&lt;/font&gt;" style="shape=step;whiteSpace=wrap;html=1;fontSize=28;fillColor=#0059B0;fontColor=#FFFFFF;strokeColor=none;" parent="1" vertex="1">
          <mxGeometry x="690" y="180" width="170" height="80" as="geometry" />
        </mxCell>
        <mxCell id="57fe6abec08f04cb-6" value="&lt;font style=&quot;font-size: 14px;&quot;&gt;Notifications&lt;/font&gt;" style="shape=step;whiteSpace=wrap;html=1;fontSize=28;fillColor=#004D99;fontColor=#FFFFFF;strokeColor=none;" parent="1" vertex="1">
          <mxGeometry x="840" y="180" width="170" height="80" as="geometry" />
        </mxCell>
        <mxCell id="57fe6abec08f04cb-7" value="&lt;font style=&quot;font-size: 36px;&quot;&gt;Regatta CI GitHubActions E2E Workflow&lt;/font&gt;" style="text;html=1;strokeColor=none;fillColor=#61BAFF;align=center;verticalAlign=middle;whiteSpace=wrap;fontSize=54;fontStyle=1;fontColor=#004D99;" parent="1" vertex="1">
          <mxGeometry x="120" y="110" width="860" height="60" as="geometry" />
        </mxCell>
        <mxCell id="57fe6abec08f04cb-8" value="Build the base image containing all required packages.&amp;nbsp;&lt;br&gt;&lt;br&gt;&lt;br&gt;CentOS7&amp;nbsp;&lt;br&gt;&lt;br&gt;&lt;br&gt;&lt;br&gt;" style="text;spacingTop=-5;fillColor=#ffffff;whiteSpace=wrap;html=1;align=left;fontSize=12;fontFamily=Helvetica;fillColor=none;strokeColor=none;" parent="1" vertex="1">
          <mxGeometry x="100" y="280" width="140" height="470" as="geometry" />
        </mxCell>
        <mxCell id="57fe6abec08f04cb-9" value="&amp;nbsp;The product is built on top of docker base images .&lt;br&gt;&lt;br&gt;pushed to docker registry with the proper tag ." style="text;spacingTop=-5;fillColor=#ffffff;whiteSpace=wrap;html=1;align=left;fontSize=12;fontFamily=Helvetica;fillColor=none;strokeColor=none;" parent="1" vertex="1">
          <mxGeometry x="250" y="280" width="140" height="470" as="geometry" />
        </mxCell>
        <mxCell id="57fe6abec08f04cb-10" value="All regression tests are excuted .&amp;nbsp;" style="text;spacingTop=-5;fillColor=#ffffff;whiteSpace=wrap;html=1;align=left;fontSize=12;fontFamily=Helvetica;fillColor=none;strokeColor=none;" parent="1" vertex="1">
          <mxGeometry x="400" y="280" width="140" height="470" as="geometry" />
        </mxCell>
        <mxCell id="57fe6abec08f04cb-11" value="All ETE test results are aggragated with metrics *logs to hosted servers&amp;nbsp;&lt;br&gt;" style="text;spacingTop=-5;fillColor=#ffffff;whiteSpace=wrap;html=1;align=left;fontSize=12;fontFamily=Helvetica;fillColor=none;strokeColor=none;" parent="1" vertex="1">
          <mxGeometry x="550" y="280" width="140" height="470" as="geometry" />
        </mxCell>
        <mxCell id="57fe6abec08f04cb-12" value="When the process fails, all logs, relevant bin files, core dumps and OS status (such as CPU/RAM utilization) need to be collected and accessible by an engineer for debugging" style="text;spacingTop=-5;fillColor=#ffffff;whiteSpace=wrap;html=1;align=left;fontSize=12;fontFamily=Helvetica;fillColor=none;strokeColor=none;" parent="1" vertex="1">
          <mxGeometry x="700" y="280" width="140" height="470" as="geometry" />
        </mxCell>
        <mxCell id="57fe6abec08f04cb-13" value="* Automatic email notification are recieved on every change on build status .&amp;nbsp;&lt;br&gt;&lt;br&gt;&lt;br&gt;&lt;br&gt;BONUS - connect to slack&amp;nbsp;&lt;br&gt;&lt;br&gt;&lt;br&gt;&lt;br&gt;&lt;div&gt;Think of a way for an engineer to get a Slack notification on a Started/Success/Failed CI&lt;/div&gt;&lt;div&gt;workflow of his PR.&lt;/div&gt;" style="text;spacingTop=-5;fillColor=#ffffff;whiteSpace=wrap;html=1;align=left;fontSize=12;fontFamily=Helvetica;fillColor=none;strokeColor=none;" parent="1" vertex="1">
          <mxGeometry x="855" y="280" width="140" height="470" as="geometry" />
        </mxCell>
        <mxCell id="oG8u07YWVJC_rPQbSC51-2" value="Release Manager&lt;br&gt;" style="shape=umlActor;verticalLabelPosition=bottom;verticalAlign=top;html=1;outlineConnect=0;" vertex="1" parent="1">
          <mxGeometry x="40" y="30" width="30" height="60" as="geometry" />
        </mxCell>
        <mxCell id="oG8u07YWVJC_rPQbSC51-3" value="Istart&amp;nbsp;a build" style="endArrow=classic;html=1;rounded=0;exitX=0.5;exitY=0.5;exitDx=0;exitDy=0;exitPerimeter=0;entryX=0;entryY=0.25;entryDx=0;entryDy=0;" edge="1" parent="1">
          <mxGeometry x="0.0588" y="-24" relative="1" as="geometry">
            <mxPoint x="65" y="60" as="sourcePoint" />
            <mxPoint x="100" y="200" as="targetPoint" />
            <mxPoint as="offset" />
          </mxGeometry>
        </mxCell>
      </root>
    </mxGraphModel>
  </diagram>
  <diagram id="yJNGZ7-7aAFMkyPuvhZl" name="Cost Estimation">
    <mxGraphModel dx="910" dy="1697" grid="1" gridSize="10" guides="1" tooltips="1" connect="1" arrows="1" fold="1" page="1" pageScale="1" pageWidth="850" pageHeight="1100" math="0" shadow="0">
      <root>
        <mxCell id="0" />
        <mxCell id="1" parent="0" />
        <mxCell id="PWbmjM3-0HegXmuuQ3uZ-1" value="GitHub costs" style="swimlane;fontStyle=0;childLayout=stackLayout;horizontal=1;startSize=30;horizontalStack=0;resizeParent=1;resizeParentMax=0;resizeLast=0;collapsible=1;marginBottom=0;whiteSpace=wrap;html=1;" vertex="1" parent="1">
          <mxGeometry x="740" y="450" width="140" height="120" as="geometry" />
        </mxCell>
        <mxCell id="PWbmjM3-0HegXmuuQ3uZ-2" value="Item 1" style="text;strokeColor=none;fillColor=none;align=left;verticalAlign=middle;spacingLeft=4;spacingRight=4;overflow=hidden;points=[[0,0.5],[1,0.5]];portConstraint=eastwest;rotatable=0;whiteSpace=wrap;html=1;" vertex="1" parent="PWbmjM3-0HegXmuuQ3uZ-1">
          <mxGeometry y="30" width="140" height="30" as="geometry" />
        </mxCell>
        <mxCell id="PWbmjM3-0HegXmuuQ3uZ-3" value="Item 2" style="text;strokeColor=none;fillColor=none;align=left;verticalAlign=middle;spacingLeft=4;spacingRight=4;overflow=hidden;points=[[0,0.5],[1,0.5]];portConstraint=eastwest;rotatable=0;whiteSpace=wrap;html=1;" vertex="1" parent="PWbmjM3-0HegXmuuQ3uZ-1">
          <mxGeometry y="60" width="140" height="30" as="geometry" />
        </mxCell>
        <mxCell id="PWbmjM3-0HegXmuuQ3uZ-4" value="Item 3" style="text;strokeColor=none;fillColor=none;align=left;verticalAlign=middle;spacingLeft=4;spacingRight=4;overflow=hidden;points=[[0,0.5],[1,0.5]];portConstraint=eastwest;rotatable=0;whiteSpace=wrap;html=1;" vertex="1" parent="PWbmjM3-0HegXmuuQ3uZ-1">
          <mxGeometry y="90" width="140" height="30" as="geometry" />
        </mxCell>
        <mxCell id="PWbmjM3-0HegXmuuQ3uZ-6" value="" style="shape=table;startSize=0;container=1;collapsible=0;childLayout=tableLayout;" vertex="1" parent="1">
          <mxGeometry x="110" y="40" width="570" height="720" as="geometry" />
        </mxCell>
        <mxCell id="PWbmjM3-0HegXmuuQ3uZ-7" value="" style="shape=tableRow;horizontal=0;startSize=0;swimlaneHead=0;swimlaneBody=0;strokeColor=inherit;top=0;left=0;bottom=0;right=0;collapsible=0;dropTarget=0;fillColor=none;points=[[0,0.5],[1,0.5]];portConstraint=eastwest;" vertex="1" parent="PWbmjM3-0HegXmuuQ3uZ-6">
          <mxGeometry width="570" height="89" as="geometry" />
        </mxCell>
        <mxCell id="PWbmjM3-0HegXmuuQ3uZ-8" value="Feature/Plan type" style="shape=partialRectangle;html=1;whiteSpace=wrap;connectable=0;strokeColor=inherit;overflow=hidden;fillColor=none;top=0;left=0;bottom=0;right=0;pointerEvents=1;" vertex="1" parent="PWbmjM3-0HegXmuuQ3uZ-7">
          <mxGeometry width="114" height="89" as="geometry">
            <mxRectangle width="114" height="89" as="alternateBounds" />
          </mxGeometry>
        </mxCell>
        <mxCell id="PWbmjM3-0HegXmuuQ3uZ-9" value="Free&amp;nbsp;" style="shape=partialRectangle;html=1;whiteSpace=wrap;connectable=0;strokeColor=inherit;overflow=hidden;fillColor=none;top=0;left=0;bottom=0;right=0;pointerEvents=1;" vertex="1" parent="PWbmjM3-0HegXmuuQ3uZ-7">
          <mxGeometry x="114" width="111" height="89" as="geometry">
            <mxRectangle width="111" height="89" as="alternateBounds" />
          </mxGeometry>
        </mxCell>
        <mxCell id="PWbmjM3-0HegXmuuQ3uZ-10" value="Team" style="shape=partialRectangle;html=1;whiteSpace=wrap;connectable=0;strokeColor=inherit;overflow=hidden;fillColor=none;top=0;left=0;bottom=0;right=0;pointerEvents=1;" vertex="1" parent="PWbmjM3-0HegXmuuQ3uZ-7">
          <mxGeometry x="225" width="155" height="89" as="geometry">
            <mxRectangle width="155" height="89" as="alternateBounds" />
          </mxGeometry>
        </mxCell>
        <mxCell id="PWbmjM3-0HegXmuuQ3uZ-11" value="Team+ local runners&amp;nbsp;" style="shape=partialRectangle;html=1;whiteSpace=wrap;connectable=0;strokeColor=inherit;overflow=hidden;fillColor=none;top=0;left=0;bottom=0;right=0;pointerEvents=1;" vertex="1" parent="PWbmjM3-0HegXmuuQ3uZ-7">
          <mxGeometry x="380" width="76" height="89" as="geometry">
            <mxRectangle width="76" height="89" as="alternateBounds" />
          </mxGeometry>
        </mxCell>
        <mxCell id="PWbmjM3-0HegXmuuQ3uZ-12" value="Enterprise" style="shape=partialRectangle;html=1;whiteSpace=wrap;connectable=0;strokeColor=inherit;overflow=hidden;fillColor=none;top=0;left=0;bottom=0;right=0;pointerEvents=1;" vertex="1" parent="PWbmjM3-0HegXmuuQ3uZ-7">
          <mxGeometry x="456" width="114" height="89" as="geometry">
            <mxRectangle width="114" height="89" as="alternateBounds" />
          </mxGeometry>
        </mxCell>
        <mxCell id="PWbmjM3-0HegXmuuQ3uZ-13" value="" style="shape=tableRow;horizontal=0;startSize=0;swimlaneHead=0;swimlaneBody=0;strokeColor=inherit;top=0;left=0;bottom=0;right=0;collapsible=0;dropTarget=0;fillColor=none;points=[[0,0.5],[1,0.5]];portConstraint=eastwest;" vertex="1" parent="PWbmjM3-0HegXmuuQ3uZ-6">
          <mxGeometry y="89" width="570" height="127" as="geometry" />
        </mxCell>
        <mxCell id="PWbmjM3-0HegXmuuQ3uZ-14" value="&lt;meta charset=&quot;utf-8&quot;&gt;&lt;span style=&quot;color: rgb(0, 0, 0); font-family: Helvetica; font-size: 12px; font-style: normal; font-variant-ligatures: normal; font-variant-caps: normal; font-weight: 400; letter-spacing: normal; orphans: 2; text-align: center; text-indent: 0px; text-transform: none; widows: 2; word-spacing: 0px; -webkit-text-stroke-width: 0px; background-color: rgb(251, 251, 251); text-decoration-thickness: initial; text-decoration-style: initial; text-decoration-color: initial; float: none; display: inline !important;&quot;&gt;costs per user&lt;/span&gt;" style="shape=partialRectangle;html=1;whiteSpace=wrap;connectable=0;strokeColor=inherit;overflow=hidden;fillColor=none;top=0;left=0;bottom=0;right=0;pointerEvents=1;" vertex="1" parent="PWbmjM3-0HegXmuuQ3uZ-13">
          <mxGeometry width="114" height="127" as="geometry">
            <mxRectangle width="114" height="127" as="alternateBounds" />
          </mxGeometry>
        </mxCell>
        <mxCell id="PWbmjM3-0HegXmuuQ3uZ-15" value="0" style="shape=partialRectangle;html=1;whiteSpace=wrap;connectable=0;strokeColor=inherit;overflow=hidden;fillColor=none;top=0;left=0;bottom=0;right=0;pointerEvents=1;" vertex="1" parent="PWbmjM3-0HegXmuuQ3uZ-13">
          <mxGeometry x="114" width="111" height="127" as="geometry">
            <mxRectangle width="111" height="127" as="alternateBounds" />
          </mxGeometry>
        </mxCell>
        <mxCell id="PWbmjM3-0HegXmuuQ3uZ-16" value="3.67$ per month for the first yeat&amp;nbsp;&lt;br&gt;*&lt;b&gt;Discounted pricing is for new yearly&amp;nbsp;&lt;br&gt;&lt;br&gt;2200$ per year&amp;nbsp;&lt;br&gt;&lt;/b&gt;" style="shape=partialRectangle;html=1;whiteSpace=wrap;connectable=0;strokeColor=inherit;overflow=hidden;fillColor=none;top=0;left=0;bottom=0;right=0;pointerEvents=1;" vertex="1" parent="PWbmjM3-0HegXmuuQ3uZ-13">
          <mxGeometry x="225" width="155" height="127" as="geometry">
            <mxRectangle width="155" height="127" as="alternateBounds" />
          </mxGeometry>
        </mxCell>
        <mxCell id="PWbmjM3-0HegXmuuQ3uZ-17" value="" style="shape=partialRectangle;html=1;whiteSpace=wrap;connectable=0;strokeColor=inherit;overflow=hidden;fillColor=none;top=0;left=0;bottom=0;right=0;pointerEvents=1;" vertex="1" parent="PWbmjM3-0HegXmuuQ3uZ-13">
          <mxGeometry x="380" width="76" height="127" as="geometry">
            <mxRectangle width="76" height="127" as="alternateBounds" />
          </mxGeometry>
        </mxCell>
        <mxCell id="PWbmjM3-0HegXmuuQ3uZ-18" value="19$ per month&amp;nbsp;&lt;br&gt;for 50 users&amp;nbsp;&lt;br&gt;~ 10K Per year&amp;nbsp;" style="shape=partialRectangle;html=1;whiteSpace=wrap;connectable=0;strokeColor=inherit;overflow=hidden;fillColor=none;top=0;left=0;bottom=0;right=0;pointerEvents=1;" vertex="1" parent="PWbmjM3-0HegXmuuQ3uZ-13">
          <mxGeometry x="456" width="114" height="127" as="geometry">
            <mxRectangle width="114" height="127" as="alternateBounds" />
          </mxGeometry>
        </mxCell>
        <mxCell id="PWbmjM3-0HegXmuuQ3uZ-19" value="" style="shape=tableRow;horizontal=0;startSize=0;swimlaneHead=0;swimlaneBody=0;strokeColor=inherit;top=0;left=0;bottom=0;right=0;collapsible=0;dropTarget=0;fillColor=none;points=[[0,0.5],[1,0.5]];portConstraint=eastwest;" vertex="1" parent="PWbmjM3-0HegXmuuQ3uZ-6">
          <mxGeometry y="216" width="570" height="89" as="geometry" />
        </mxCell>
        <mxCell id="PWbmjM3-0HegXmuuQ3uZ-20" value="CI/CD&amp;nbsp;" style="shape=partialRectangle;html=1;whiteSpace=wrap;connectable=0;strokeColor=inherit;overflow=hidden;fillColor=none;top=0;left=0;bottom=0;right=0;pointerEvents=1;" vertex="1" parent="PWbmjM3-0HegXmuuQ3uZ-19">
          <mxGeometry width="114" height="89" as="geometry">
            <mxRectangle width="114" height="89" as="alternateBounds" />
          </mxGeometry>
        </mxCell>
        <mxCell id="PWbmjM3-0HegXmuuQ3uZ-21" value="&lt;meta charset=&quot;utf-8&quot;&gt;&lt;span style=&quot;color: rgb(0, 0, 0); font-family: Helvetica; font-size: 12px; font-style: normal; font-variant-ligatures: normal; font-variant-caps: normal; font-weight: 400; letter-spacing: normal; orphans: 2; text-align: center; text-indent: 0px; text-transform: none; widows: 2; word-spacing: 0px; -webkit-text-stroke-width: 0px; background-color: rgb(251, 251, 251); text-decoration-thickness: initial; text-decoration-style: initial; text-decoration-color: initial; float: none; display: inline !important;&quot;&gt;Up to 2500 minutes&lt;/span&gt;&lt;br style=&quot;border-color: var(--border-color); color: rgb(0, 0, 0); font-family: Helvetica; font-size: 12px; font-style: normal; font-variant-ligatures: normal; font-variant-caps: normal; font-weight: 400; letter-spacing: normal; orphans: 2; text-align: center; text-indent: 0px; text-transform: none; widows: 2; word-spacing: 0px; -webkit-text-stroke-width: 0px; background-color: rgb(251, 251, 251); text-decoration-thickness: initial; text-decoration-style: initial; text-decoration-color: initial;&quot;&gt;&lt;span style=&quot;color: rgb(0, 0, 0); font-family: Helvetica; font-size: 12px; font-style: normal; font-variant-ligatures: normal; font-variant-caps: normal; font-weight: 400; letter-spacing: normal; orphans: 2; text-align: center; text-indent: 0px; text-transform: none; widows: 2; word-spacing: 0px; -webkit-text-stroke-width: 0px; background-color: rgb(251, 251, 251); text-decoration-thickness: initial; text-decoration-style: initial; text-decoration-color: initial; float: none; display: inline !important;&quot;&gt;40 hours&lt;/span&gt;" style="shape=partialRectangle;html=1;whiteSpace=wrap;connectable=0;strokeColor=inherit;overflow=hidden;fillColor=none;top=0;left=0;bottom=0;right=0;pointerEvents=1;" vertex="1" parent="PWbmjM3-0HegXmuuQ3uZ-19">
          <mxGeometry x="114" width="111" height="89" as="geometry">
            <mxRectangle width="111" height="89" as="alternateBounds" />
          </mxGeometry>
        </mxCell>
        <mxCell id="PWbmjM3-0HegXmuuQ3uZ-22" value="3000&amp;nbsp;&lt;br&gt;50 hours&amp;nbsp;" style="shape=partialRectangle;html=1;whiteSpace=wrap;connectable=0;strokeColor=inherit;overflow=hidden;fillColor=none;top=0;left=0;bottom=0;right=0;pointerEvents=1;" vertex="1" parent="PWbmjM3-0HegXmuuQ3uZ-19">
          <mxGeometry x="225" width="155" height="89" as="geometry">
            <mxRectangle width="155" height="89" as="alternateBounds" />
          </mxGeometry>
        </mxCell>
        <mxCell id="PWbmjM3-0HegXmuuQ3uZ-23" value="unlimited" style="shape=partialRectangle;html=1;whiteSpace=wrap;connectable=0;strokeColor=inherit;overflow=hidden;fillColor=none;top=0;left=0;bottom=0;right=0;pointerEvents=1;" vertex="1" parent="PWbmjM3-0HegXmuuQ3uZ-19">
          <mxGeometry x="380" width="76" height="89" as="geometry">
            <mxRectangle width="76" height="89" as="alternateBounds" />
          </mxGeometry>
        </mxCell>
        <mxCell id="PWbmjM3-0HegXmuuQ3uZ-24" value="" style="shape=partialRectangle;html=1;whiteSpace=wrap;connectable=0;strokeColor=inherit;overflow=hidden;fillColor=none;top=0;left=0;bottom=0;right=0;pointerEvents=1;" vertex="1" parent="PWbmjM3-0HegXmuuQ3uZ-19">
          <mxGeometry x="456" width="114" height="89" as="geometry">
            <mxRectangle width="114" height="89" as="alternateBounds" />
          </mxGeometry>
        </mxCell>
        <mxCell id="PWbmjM3-0HegXmuuQ3uZ-25" value="" style="shape=tableRow;horizontal=0;startSize=0;swimlaneHead=0;swimlaneBody=0;strokeColor=inherit;top=0;left=0;bottom=0;right=0;collapsible=0;dropTarget=0;fillColor=none;points=[[0,0.5],[1,0.5]];portConstraint=eastwest;" vertex="1" parent="PWbmjM3-0HegXmuuQ3uZ-6">
          <mxGeometry y="305" width="570" height="90" as="geometry" />
        </mxCell>
        <mxCell id="PWbmjM3-0HegXmuuQ3uZ-26" value="&lt;span style=&quot;color: rgb(0, 0, 0); font-family: Helvetica; font-size: 12px; font-style: normal; font-variant-ligatures: normal; font-variant-caps: normal; font-weight: 400; letter-spacing: normal; orphans: 2; text-align: center; text-indent: 0px; text-transform: none; widows: 2; word-spacing: 0px; -webkit-text-stroke-width: 0px; background-color: rgb(251, 251, 251); text-decoration-thickness: initial; text-decoration-style: initial; text-decoration-color: initial; float: none; display: inline !important;&quot;&gt;Packages storgage&lt;/span&gt;" style="shape=partialRectangle;html=1;whiteSpace=wrap;connectable=0;strokeColor=inherit;overflow=hidden;fillColor=none;top=0;left=0;bottom=0;right=0;pointerEvents=1;" vertex="1" parent="PWbmjM3-0HegXmuuQ3uZ-25">
          <mxGeometry width="114" height="90" as="geometry">
            <mxRectangle width="114" height="90" as="alternateBounds" />
          </mxGeometry>
        </mxCell>
        <mxCell id="PWbmjM3-0HegXmuuQ3uZ-27" value="Up to 500M" style="shape=partialRectangle;html=1;whiteSpace=wrap;connectable=0;strokeColor=inherit;overflow=hidden;fillColor=none;top=0;left=0;bottom=0;right=0;pointerEvents=1;" vertex="1" parent="PWbmjM3-0HegXmuuQ3uZ-25">
          <mxGeometry x="114" width="111" height="90" as="geometry">
            <mxRectangle width="111" height="90" as="alternateBounds" />
          </mxGeometry>
        </mxCell>
        <mxCell id="PWbmjM3-0HegXmuuQ3uZ-28" value="2G package storage" style="shape=partialRectangle;html=1;whiteSpace=wrap;connectable=0;strokeColor=inherit;overflow=hidden;fillColor=none;top=0;left=0;bottom=0;right=0;pointerEvents=1;" vertex="1" parent="PWbmjM3-0HegXmuuQ3uZ-25">
          <mxGeometry x="225" width="155" height="90" as="geometry">
            <mxRectangle width="155" height="90" as="alternateBounds" />
          </mxGeometry>
        </mxCell>
        <mxCell id="PWbmjM3-0HegXmuuQ3uZ-29" value="Handled internally unlimited&lt;br&gt;" style="shape=partialRectangle;html=1;whiteSpace=wrap;connectable=0;strokeColor=inherit;overflow=hidden;fillColor=none;top=0;left=0;bottom=0;right=0;pointerEvents=1;" vertex="1" parent="PWbmjM3-0HegXmuuQ3uZ-25">
          <mxGeometry x="380" width="76" height="90" as="geometry">
            <mxRectangle width="76" height="90" as="alternateBounds" />
          </mxGeometry>
        </mxCell>
        <mxCell id="PWbmjM3-0HegXmuuQ3uZ-30" value="" style="shape=partialRectangle;html=1;whiteSpace=wrap;connectable=0;strokeColor=inherit;overflow=hidden;fillColor=none;top=0;left=0;bottom=0;right=0;pointerEvents=1;" vertex="1" parent="PWbmjM3-0HegXmuuQ3uZ-25">
          <mxGeometry x="456" width="114" height="90" as="geometry">
            <mxRectangle width="114" height="90" as="alternateBounds" />
          </mxGeometry>
        </mxCell>
        <mxCell id="PWbmjM3-0HegXmuuQ3uZ-31" value="" style="shape=tableRow;horizontal=0;startSize=0;swimlaneHead=0;swimlaneBody=0;strokeColor=inherit;top=0;left=0;bottom=0;right=0;collapsible=0;dropTarget=0;fillColor=none;points=[[0,0.5],[1,0.5]];portConstraint=eastwest;" vertex="1" parent="PWbmjM3-0HegXmuuQ3uZ-6">
          <mxGeometry y="395" width="570" height="245" as="geometry" />
        </mxCell>
        <mxCell id="PWbmjM3-0HegXmuuQ3uZ-32" value="Additional features" style="shape=partialRectangle;html=1;whiteSpace=wrap;connectable=0;strokeColor=inherit;overflow=hidden;fillColor=none;top=0;left=0;bottom=0;right=0;pointerEvents=1;" vertex="1" parent="PWbmjM3-0HegXmuuQ3uZ-31">
          <mxGeometry width="114" height="245" as="geometry">
            <mxRectangle width="114" height="245" as="alternateBounds" />
          </mxGeometry>
        </mxCell>
        <mxCell id="PWbmjM3-0HegXmuuQ3uZ-33" value="" style="shape=partialRectangle;html=1;whiteSpace=wrap;connectable=0;strokeColor=inherit;overflow=hidden;fillColor=none;top=0;left=0;bottom=0;right=0;pointerEvents=1;" vertex="1" parent="PWbmjM3-0HegXmuuQ3uZ-31">
          <mxGeometry x="114" width="111" height="245" as="geometry">
            <mxRectangle width="111" height="245" as="alternateBounds" />
          </mxGeometry>
        </mxCell>
        <mxCell id="PWbmjM3-0HegXmuuQ3uZ-34" value="" style="shape=partialRectangle;html=1;whiteSpace=wrap;connectable=0;strokeColor=inherit;overflow=hidden;fillColor=none;top=0;left=0;bottom=0;right=0;pointerEvents=1;" vertex="1" parent="PWbmjM3-0HegXmuuQ3uZ-31">
          <mxGeometry x="225" width="155" height="245" as="geometry">
            <mxRectangle width="155" height="245" as="alternateBounds" />
          </mxGeometry>
        </mxCell>
        <mxCell id="PWbmjM3-0HegXmuuQ3uZ-35" value="" style="shape=partialRectangle;html=1;whiteSpace=wrap;connectable=0;strokeColor=inherit;overflow=hidden;fillColor=none;top=0;left=0;bottom=0;right=0;pointerEvents=1;" vertex="1" parent="PWbmjM3-0HegXmuuQ3uZ-31">
          <mxGeometry x="380" width="76" height="245" as="geometry">
            <mxRectangle width="76" height="245" as="alternateBounds" />
          </mxGeometry>
        </mxCell>
        <mxCell id="PWbmjM3-0HegXmuuQ3uZ-36" value="" style="shape=partialRectangle;html=1;whiteSpace=wrap;connectable=0;strokeColor=inherit;overflow=hidden;fillColor=none;top=0;left=0;bottom=0;right=0;pointerEvents=1;" vertex="1" parent="PWbmjM3-0HegXmuuQ3uZ-31">
          <mxGeometry x="456" width="114" height="245" as="geometry">
            <mxRectangle width="114" height="245" as="alternateBounds" />
          </mxGeometry>
        </mxCell>
        <mxCell id="PWbmjM3-0HegXmuuQ3uZ-37" value="" style="shape=tableRow;horizontal=0;startSize=0;swimlaneHead=0;swimlaneBody=0;strokeColor=inherit;top=0;left=0;bottom=0;right=0;collapsible=0;dropTarget=0;fillColor=none;points=[[0,0.5],[1,0.5]];portConstraint=eastwest;" vertex="1" parent="PWbmjM3-0HegXmuuQ3uZ-6">
          <mxGeometry y="640" width="570" height="80" as="geometry" />
        </mxCell>
        <mxCell id="PWbmjM3-0HegXmuuQ3uZ-38" value="" style="shape=partialRectangle;html=1;whiteSpace=wrap;connectable=0;strokeColor=inherit;overflow=hidden;fillColor=none;top=0;left=0;bottom=0;right=0;pointerEvents=1;" vertex="1" parent="PWbmjM3-0HegXmuuQ3uZ-37">
          <mxGeometry width="114" height="80" as="geometry">
            <mxRectangle width="114" height="80" as="alternateBounds" />
          </mxGeometry>
        </mxCell>
        <mxCell id="PWbmjM3-0HegXmuuQ3uZ-39" value="" style="shape=partialRectangle;html=1;whiteSpace=wrap;connectable=0;strokeColor=inherit;overflow=hidden;fillColor=none;top=0;left=0;bottom=0;right=0;pointerEvents=1;" vertex="1" parent="PWbmjM3-0HegXmuuQ3uZ-37">
          <mxGeometry x="114" width="111" height="80" as="geometry">
            <mxRectangle width="111" height="80" as="alternateBounds" />
          </mxGeometry>
        </mxCell>
        <mxCell id="PWbmjM3-0HegXmuuQ3uZ-40" value="" style="shape=partialRectangle;html=1;whiteSpace=wrap;connectable=0;strokeColor=inherit;overflow=hidden;fillColor=none;top=0;left=0;bottom=0;right=0;pointerEvents=1;" vertex="1" parent="PWbmjM3-0HegXmuuQ3uZ-37">
          <mxGeometry x="225" width="155" height="80" as="geometry">
            <mxRectangle width="155" height="80" as="alternateBounds" />
          </mxGeometry>
        </mxCell>
        <mxCell id="PWbmjM3-0HegXmuuQ3uZ-41" value="" style="shape=partialRectangle;html=1;whiteSpace=wrap;connectable=0;strokeColor=inherit;overflow=hidden;fillColor=none;top=0;left=0;bottom=0;right=0;pointerEvents=1;" vertex="1" parent="PWbmjM3-0HegXmuuQ3uZ-37">
          <mxGeometry x="380" width="76" height="80" as="geometry">
            <mxRectangle width="76" height="80" as="alternateBounds" />
          </mxGeometry>
        </mxCell>
        <mxCell id="PWbmjM3-0HegXmuuQ3uZ-42" value="" style="shape=partialRectangle;html=1;whiteSpace=wrap;connectable=0;strokeColor=inherit;overflow=hidden;fillColor=none;top=0;left=0;bottom=0;right=0;pointerEvents=1;" vertex="1" parent="PWbmjM3-0HegXmuuQ3uZ-37">
          <mxGeometry x="456" width="114" height="80" as="geometry">
            <mxRectangle width="114" height="80" as="alternateBounds" />
          </mxGeometry>
        </mxCell>
        <UserObject label="https://github.com/pricing" link="https://github.com/pricing" id="PWbmjM3-0HegXmuuQ3uZ-43">
          <mxCell style="text;whiteSpace=wrap;" vertex="1" parent="1">
            <mxGeometry x="20" y="-20" width="200" height="40" as="geometry" />
          </mxCell>
        </UserObject>
        <mxCell id="PWbmjM3-0HegXmuuQ3uZ-45" value="" style="shape=image;imageAspect=0;aspect=fixed;verticalLabelPosition=bottom;verticalAlign=top;image=data:image/png,iVBORw0KGgoAAAANSUhEUgAAAdwAAAGQCAYAAAAEOdHiAAABX2lDQ1BJQ0MgUHJvZmlsZQAAKJF1kE9LAlEUxc+YYZlQQUGLFi4iCLRsFGoXZlKBhGhRthufNgbj+Bgn+rOKPoMEtWgThN/ATYs+QIsgKKhNu5YtgtmkvO7TSi16j8v5vcM9j8sFXD6Nc8MNoGjaVmp50b+V2fZ7XtGPPnjhxrDGyjyaTCaoBd/afZwHKFLvg/KveObiNjYRPBqtX1Yb5wsnf/u7jjeXLzPSOlWEccsGlBBxct/mko+JRywairgiWW9xVXK2xdfNnvVUjPiOeIgVtBzxC3Eg2+HrHVw09tjXDHJ6X97cSJOOUY1jCXEk6PqRhoo5qlmsYO2fTKSZiaEEjkNY2IWOAmxKR8nhMJAnXoUJhmkEiFWEqMJy17932PYMDsw/A66ztsfegJoDDIq2N3lA7xngpsI1S/vZrOK4yzthtcUDNaD3VIj3TcAzBTQehfioCdG4AnqeKOt8AiUEZSfl/vsrAAAAVmVYSWZNTQAqAAAACAABh2kABAAAAAEAAAAaAAAAAAADkoYABwAAABIAAABEoAIABAAAAAEAAAHcoAMABAAAAAEAAAGQAAAAAEFTQ0lJAAAAU2NyZWVuc2hvdJzOHmIAAAHWaVRYdFhNTDpjb20uYWRvYmUueG1wAAAAAAA8eDp4bXBtZXRhIHhtbG5zOng9ImFkb2JlOm5zOm1ldGEvIiB4OnhtcHRrPSJYTVAgQ29yZSA2LjAuMCI+CiAgIDxyZGY6UkRGIHhtbG5zOnJkZj0iaHR0cDovL3d3dy53My5vcmcvMTk5OS8wMi8yMi1yZGYtc3ludGF4LW5zIyI+CiAgICAgIDxyZGY6RGVzY3JpcHRpb24gcmRmOmFib3V0PSIiCiAgICAgICAgICAgIHhtbG5zOmV4aWY9Imh0dHA6Ly9ucy5hZG9iZS5jb20vZXhpZi8xLjAvIj4KICAgICAgICAgPGV4aWY6UGl4ZWxZRGltZW5zaW9uPjQwMDwvZXhpZjpQaXhlbFlEaW1lbnNpb24+CiAgICAgICAgIDxleGlmOlBpeGVsWERpbWVuc2lvbj40NzY8L2V4aWY6UGl4ZWxYRGltZW5zaW9uPgogICAgICAgICA8ZXhpZjpVc2VyQ29tbWVudD5TY3JlZW5zaG90PC9leGlmOlVzZXJDb21tZW50PgogICAgICA8L3JkZjpEZXNjcmlwdGlvbj4KICAgPC9yZGY6UkRGPgo8L3g6eG1wbWV0YT4KOMNDdQAAQABJREFUeAHsnQd8FUXXxg+99w6h9470Jk1E6YgFRBERxF5RsWB/fa2vFT57QSwoKk0EQTpIld5C6L2E3vs3z4TZzC434d7k5t5r8pyfZndnZ6f8Z+6emTNnlnTHTp6+KBQSIAESIAESIIEUJZA+RVNn4iRAAiRAAiRAApoAFS47AgmQAAmQAAmEgAAVbgggMwsSIAESIAESoMJlHyABEiABEiCBEBCgwg0BZGZBAiRAAiRAAlS47AMkQAIkQAIkEAICVLghgMwsSIAESIAESIAKl32ABEiABEiABEJAgAo3BJCZBQmQAAmQAAlQ4bIPkAAJkAAJkEAICFDhhgAysyABEiABEiABKlz2ARIgARIgARIIAQEq3BBAZhYkQAIkQAIkQIXLPkACJEACJEACISBAhRsCyMyCBEiABEiABKhw2QdIgARIgARIIAQEqHBDAJlZkAAJkAAJkAAVLvsACZAACZAACYSAABVuCCAzCxIgARIgARKgwmUfIAESIAESIIEQEKDCDQFkZkECJEACJEACGYOJIDpmvcTGHpAmjepL+vSRqct/GTVWTp067ap2107tJVeunK4wXoSPwLlz52X1mrWybccO2bZtpxw6fFiiShSXMqVLSelSUfo8Xbp0rgKePn1aRv421gnr2P5ayZc3r3Od2Mm8BYtk/YZNOkqePLmlc4frfEY/duy4jB73h3Ov5dVNpWRUCec60JOF/yyR6HXr9WNIB+kFQ3bv2SvrYjbI9h07Zfv2HZJT9e1yZUprfmXLlJIsWbIEI5tE05j993zZvGWrjlOxQjlp1KBeovF5kwTSAoGgKdyLFy/Kh0M/k7Nnz8qa6Gjp1+d28b4Uww0UL6BJf027rBjFihaRa1q3uCycAXEEJvz5l6xSCvDQocNSu1YNubl71xRDE7N+g3z21bdy+PARVx4bN22WmbP/1mFQvA/df7fkyhk/SDpz5qxzH5Hq163jKNx9sbHy08jRWnEfPnJEXnjmSdcAa/mKVbJo8VKddqZMmRJUuCdOnnTlUapkiWQp3JWr1sjc+Qt1vlFRxZOtcM2gw3DSCV/6s3TZCqd+D9zTT6pVrWzfDvr54iVLZeXqtTrd2P37qXCDTpgJ/hsJBG0aCuXapFEDzWDBwsXy9bc/CJRwJAlmMr7EvPR83WOYyBL1ssaMae++WDly5GiKIYFif/u9IZcpW2+GmDk9+8J/ZNPmuBmU9773+tChI7J85SrZum27TvvChQveKP/6a8y+n3ruJdeAwFelMCB+f8gnMub3Cb5uM4wESCAFCQRthosy9upxo5xUswCYyqDcMmTIIHfc1iNiZrrzF/7jEyVexEeOHpXcuXL5vM/AlCewa/ceGTV2vCujwoUKSvVqVaVE8aICM+msOfMEszgIjsO++1FeGjxIX2fLlk0evLe/PsefkmrGmJZk+A8/qd/eKafKWNKpodhVqVJRMPtfuXK1rN8YZzZHpPETJkndOrWSNUN3MuMJCZCAXwSCqnDxI+/ft7fOGEp3ztz5+rzP7T39KkxKRoI52TZTYk3JVsALFy1J1Ky8a9duWbsuRtZGx0jGjBmlQvmyUqVyJYE52pcEGn///gPKFL9OrV1GyymlTKBsGtavK+XKlrks+fPnz+tBzbbtO2XHzp2SMUNGKaXWNiuptTKUyStHjx6TRcrEt3PnLoFiy5s3j5QsUUJq1agmxYoV9UZ3rmfNmSt79u6TfbH7nbANGzcL1sFz5sgh17e7xglHmTapmefatev0iz0f8oiKkvr16vg1kPn862+dtHACa0nfO3q5wrp0vF7eeu8jtS65U4fvVG2C+qANzl84L+uUOdpI6VIlZf+BgzJtxiwBW1vG/fGnZM2aRfGtJzALJ1dOnzkj48ZPdJK5tk0rwVqwkS1bt+n2wnWO7Nml/XVtzS3XERYhrOmuWLVar79GqTaCaRzrrokJ+gysEEZgFn/+mSekaJHCJkg6qDxhav7ux5FO2F9TZ1zGGOvl6ONrVDsePXZMK+RKFcqrgU8V5zn7JFaxXbZ8pV5yyJ49m1SvWkUaN6xvR/F5nhL93dsO1197jaBfLlNLBmvWRmu/kvLlykqL5k30b9hbMFhMsLyA5YtChQro/lGpYnn5a9oMvZyC+HhveNftI+m37q0TryOLQFAVLqoG0zKULpQSTLVQuji/redNYa2515x8Q9dOeo3p+PHjulwoq691XJgfPxjyqVaGdgUwoIDccmM3adumpXMr0Ph4cORvY2TylOlOGuZk6vRZcnWzJtK71y0mSL+IPxj6qWvwgJswmUIa1LtK7uzdSzJlimvaBYsWy1fDvhevGRVm/19Hj9Prsdde00o/6/0zc/ZcgbKwBetxWAfPli2ro3APKMX28n/fcs2w4p5ZID//Olow4DLLDXZa5hxro0aJIqxUyShVh1vNbeeYNWtW6X1rDxnyyedO2Cq1TgiFe+b0Gdf6PGZ3GAD6WrM3a5xQSMFQuL7ythXuxs1bnHKgTAkp3JG/jtEvd1M5KL3JU6Zd1sfMfXM068/m+qH7+ruUrQlv0bypzJuvHMQuzXQXL12uLVCwREFgYYBZ3xasMyMMiufuu/pIntzxViA4Sf7v/aF2dEG/mj5zjh7QuG5YFynV38+qmbzd3hisfvnNd9qvxGSP3+3U6TPliccelLx58phgGasGTL+rgZgRNYZRA5S50vH6djJ91hwx7wk8YxRupP3WTdl5jFwCQVe4qCqUrnlhQpHNUB0WEk6la89mMXvMny+v1LuqtrPm5cusjB/UkI8/v0zZ6spc+gOFgvpCWQcaH0n8MXGyT2Vr8sAsE7Npo7DwsrJn6lBOZ9QMCyZXCF4oGMW3aXW1XkMf9t0IR9niZQ9v1V0qrnmBIL2aaqZrz4ZM3v4cYYp/7a13fSjbuKfBBOv5BQvkl4pqpuRLMPO25araNRNchsBs739vvGpHD+o51jgxK/YlmO2nlGDAYQ867HzQx9BGRQoXsoOdc1hvbKlcqaJ96Tp/auDDrmtzMXHSlMuUrbmHI9bwh37yhTz71GM6+MDBQ9pJ0o5jzjepAUZCkpL93ZvnZ18Oc/q+fQ++CD/+9KvcN+AuHYzBqq1s7bjjJ06yL53zSPutOwXjSUQTSBGFixobpYuZFkaKULoYGcKcE2rxmpON8mqsti+Z2Q7K5DUrw0xnPC1xv0b1qmrEe62cU2aqL74e7ii+6TNna4UbaHzvNpN2bVsLzKYQvGTBDQKFhbyzqRkeZj1GuqtZujHrDv30S23awz0MLqBw12/Y6BrdPzfocd0G586dkyeffclRulDSvrbCYNCENflvhv+oHaaQdlmlsG/u3kXNcLPhUkaN+V1gsjbSWZUfs2yYe+3ZBTyP3/7vyyaa67jNozDghWwLBh1Yh/QludWMC/n5EgxGnnr8IeUstUNGjPzNiTKgXx81u8mtthf5Nif/+HN8XOehEJzkz5dPzzhhzoS5d9qM2U6uUAj97rzdubZPYFY3goETfnuBCEzHv6l2NIJyoO0xSx8zboIsXrpM34KzGiwmWOqAxQiDEyO1alSXG7p21Aru2+9/uswygngp3d9NWcwRShGm9EbKxL1PKdlPlQI2ZcZvFZaZ/PnzyZ+Tp5pH9BG/wYbKdIz3ht2H7UiR9lu3y8bzyCWQYgrXd5XD47XsNSfjBwgpX7aMNo0aZxOvWRmjeiPYp3u/GhHDPA7pf2dv+eKb4focyuDs2XN6FqAD1B9/4mOtyJZmTRrpdUeEtWnVwlG4uMbsqoxal7QFpjvkAwWFbVjmZYKZLATrV7b8ovaptmzRTEorRfTay8/JebXfFZI5cyY7mnNeongxfZ5drTsagXWgQvly5lJi1m90zrHeaBQ3XvzHb75Bhv/ws76PWTnWB20znnnwxIkT5lQfbXMsAkaMHOXUzRVRXeRQa8kJKVys06KsamnUJRVVmDcPV4QwXTypzJwFlCUAcustN+rBlbFcJDZrNI5keC6PZSbFtT+CdXlbnlSDlAJKEUEG9LtDBj79gjM4w2wQCnfr1u3OI2iD+wb01U6SCHzsoXvl8UHPO7PL9JcGACnd3y+Ku6Hr1qkt3bp01OXEssM9aqA1RM3SjWxVe5ShcG0LAawrnS7tw0Zfz9hfPfNx/DPm2UDfDSldd1MuHiObQIopXDiAYGYEJQZpeXUzNbttGhYaXnMyzJsQzAQa1KvrzHK9ZuXodTFOeStXrOAoWwRWrlThshlboPFtZYU0X3z1DRx8CkbjFZSpGMoVMw3IgYMHlafuCCc+FGTbNq2kWZOGOgyzUShfjPQhcMrC/xCEV6lcUTq1b+dSoPqmn39gyoZ5zgg8im2pWb2afamctnb7VLjFirodt+CIgw9d+CNZMmf2J1pAcTBb8yV79u7VAx9f95IbhoGTUbYmrZqqHEbhHlR7oBOSggUKCNbWIZjJBSrrYtY7j0B5GmWLQPSTalUqOU5fxuy9XX2UxAg+bGHWgRGGAVpx5Vlu4pp4Kd3fTT7mWLuWux3xm7UlVjkD4iM4ZsCNe9WU05ctVSv73q8cab91u8w8j1wCKaJwfSnbcK3fes3JUBAPPPqU0yJmVmgCbLPywUOHTLDkzBn/kQUn0HMSaPz9Bw54Ukj4EgoX8sgDA9Ra2peO44v9xA61FoqtMkgXZjF8UWjQwEfkk8+/FrtseAZKGN6t+P/xh+/XytdOy59z25SM+DDT2gJvWVuOe2ay5p5Xua5bt17qqA9sGPno3fiByIULF+X+R54wt7R3tnMRhBOU+UHldORL0HcGv/Sar1uuMO/+84uqzFcSLBd4JbPFz9tP7bglShRzFC4GYTAR50qgv2LwGTfbSqcGnKKd5g4ciO/ntlOUySOzNagxygl5GIHntVcyZ7p8IJTS/d1bBrPsYcLteiDs1KlTcuyS06SJkyOHuy7G+dDcN0f79+TPuyHUdTfl5DGyCARd4eJlg/VN48ULM2m4lC1Qe83JCEvs5WWblYsWKaI+rrAFj6jRevyIHtfwrJ07L272jusmjRsox6PA4mMGajxMMUsZ/MxAJOVTzMsXMxA4vkABx6g1WpRv46YtzqwXD09R2xjMWjCcjN587UXZpsoP0+GWrVuVqTJGz45NRnASwmw3UIE5zhbMxuztI1jHtQUOW76kUMECrpn4VFWe66+7xtlOZEzkeHb5ivjtL7j2mtkRFmrxrpliO5ItGAhdSTCrx2/HTmvHrvjnYN5MSNCPsDXHyG/K+7zP7beaS+cIRzn4AxiLB75uhZkpFLZZp8UWsMvKYZUfeUHw2cyTJ+Pa11f9du12tz2eCUV/Rz5GvLN9YwUw9zHQw/Y1W1AXLI0Y8W4pM+GR+Fs3ZeMxcgkEVeHihwwnA1vZ4sMX4RTbnIxywHTnlePHTzgvIdusDPOtUbjYSgEnJLN+ie0H8LiEQCG0btlcm3sDiY+tFkbwMsCP22w5OHzkqNpyMcRxFoLDzMlTJ2XEz6P0I+nTp5NBTzzifDIPXw7CxwwgmIVgXW+C8jzFNg1I4cIF5dEH71VnzfT162+/79TN1wtTR/Lxx56lQjlAERiz8sTJU7Q5G9t38NLGfl0jmDl6TabmHtK5sVtnvT0KYehHL776pl4zh7kSgvrMV3X57se4NWEdqP7Ur3eVOfX7iMFSMNdwMStCHzCK7G+1Fa5500a6PPispK9Bn7eweBbtBScfCNoEe0KNmH5hru0jPOT/VOzN7HPO3AWK1xm9nQh7rrGWjzVHOK6ZMuL5a1q11MnYaWMwim0wrVs01/ewL9gsYSDA9NlCqt3NgAr38UlO44U+++95Tll0Ipf+mGdxmRL93c4L56Y/Gh+EUWPGu6JERZXQAw5Ygsw6OLYMweHQWAjsPmw/HOi7IaXrHorvY9v153nSCARV4X43YqSjbLH5PdxfmfKak1uplwi+huUV7EeE2dWIMSu3Vx92gHe1eUm99e5H6qVSTr/MoJiNwNECL9xA4+NFhxmr2aLzxjsfaAUK5QRvUBOOa8xUMYO0R+mwJFzXto3ymj6nPKzjFCvKhLLgBwhTn4mPI7YAoayYTdn7a/Mpr9TExDZ3Yl/mC6+8rhRtIW16hVMKtl9A4Bg1aPDLUrF8efURjC0u72X8gxaJCfYyw2PcbL1B3d9WH7lAXWAaNCzsNHre3F0rfDvM1zmcp2x54533pVDBgtKtcwft/W3fS8o5BgxwyjEDFwzO8OlJzNyxV9X0nyulPVrtg52nfB7g+AQFZj9nv7C96WAdG058H6ktbEZgOcH/4GenY+6j38H5CYIPoMAzGeZoCLbMzF/wj1JG6V1OcUirds24dVFYruxZNT7JiTJ691TrBC/9Sen+fkYNFmzBksegwa/ocu1Rvx0zMEQc/D7MWnVTZZ0yHuEYtDytnsF6744duy5bijHpR9pv3ZSLx8gmkD6YxVuyNM7ch6+x4CtBtnksmPn4m5Z3ZtGoQdwLxvs8nHvwMjFiHL0wO/AqaDh+2MoWM6Xu3TrpRwONjzwHPz1Qe0ojAcwuMDuAiddWMD1u6qYdtmACq6MUphFsEcJ3ceFFab9MTJnx0Qx7JoePa2DQ4P0QBtJPTMooZW8LFH/MhjgPbpjf8A8aGMELC56s9vouPpTfq8dNJorPI/rK44/crwc0dgQoC5uFuQcFjZmIPwLzny0oI9oQXtPBErM9y6SHAQ4c1FB+eMteSaDw0B/AFg45tpKEIsNgMTHBPt07buvp6seIb6djnsc+XXipm/VJ5HtP/ztdz2Kd1+vk9MSjDzhWCqyxGy92ky5m0XCUwgAR5mqvpHR/9+aH8mHmukJ91tL+fSDew+ofvzDvp07tr3PVHb9DDCyxToutZSi3VyLtt+4tH68jk0CGZwc//1KwihalOjhmYjeoWY+vThqsfPxNB/sBTyrHCAhGtHjpmx+ZnQZG8vgakPlR4l+UuUa90PHiwCcCayiFjBeQ7SiCLy1htP/YQ/epr+/EOwsFGj+7mr3Vu6qO/kcBkD48fyHgV1x9dvHBe+92ORBhhop1N5TX+zLVyr9rR+fljC1MjerX08rP3vpg6o6y9utzm8/PR5o4OGLGul19QhJrYjAVQ8Dz+mvb6HPMlLCeC0am/LiBrUFNGjeUPkoR2F6s+iEffzCTxsypSOHCsleZYqEY7TqCeVXlMfvw/QOc2ZlJBvnaXxnCXuuCaoYJQfvCBIjZpjEdIrzuVbW1Cf+fJcsc8yjKib3WvgRONlOmzXRu1VLtD4YQDIZgugQD7HOGYPnilhu7qg+RlHEsP+h/ZtsJTMZYW4cgzl19btdObKbPov9Bkd7bv6+jHHXkBP5AOWDbF/6BCfQlu65or3JlS0u7a1prnwqkbQvWMps3baw+lblbW0DsdsaA6Y5ePRyTsXkOfgvoE8a0jHAoOXxQ4uDBQ852Gyw7mK14KdnfvX2gr/riGtoAPg5GUJaet3QXtJ2RLFkyS2PVX/BJSzNQxO+vihqY4PvcaHPTD+GjUK5sGf1oJP3WTV14jGwC6Y6dPB33Bo3sckZE6fCjgzkWisHXWrC3kIHGx/P4chP29cLc5WtwYOeBDwnA+xHel3Bi8ZpO7bh4geIliLXhnDmzK4/ivH69xO00/DnHSw+ONzCner1C/XneGwc8sMYOpzIzI/PGibRrzJzB299/j9dbfrQrvGfxZakr9QHvs/Y11m51f1UDlUD/YQ445V1QdTBb6Ox0vefo5xisQmlDsQciwezvGGQMVPt/jRjve5QPfTKnWmuHKT0xwfeY8TuBYg5k0hBJv/XE6sd74SVAhRte/sydBEggSAQSUrhBSp7JkECyCVy+OJHsJJkACZAACZAACZCAl0BQvZS9ifOaBEiABEJFAEs9+B65EbOGb655JIFwE6BJOdwtwPxJgARIgATSBAGalNNEM7OSJEACJEAC4SZAhRvuFmD+JEACJEACaYIAFW6aaGZWkgRIgARIINwEqHDD3QLMnwRIgARIIE0QoMJNE83MSpIACZAACYSbABVuuFuA+ZMACZAACaQJAlS4aaKZWUkSIAESIIFwE6DCDXcLMH8SIAESIIE0QYAKN000MytJAiRAAiQQbgJUuOFuAeZPAiRAAiSQJghQ4aaJZmYlSYAESIAEwk2ACjfcLcD8SYAESIAE0gQBKtw00cysJAmQAAmQQLgJUOGGuwWYPwmQAAmQQJogQIWbJpqZlSQBEiABEgg3ASrccLcA8ycBEiABEkgTBKhw00Qzs5IkQAIkQALhJkCFG+4WYP4kQAIkQAJpggAVbppoZlaSBEiABEgg3ASocMPdAsyfBEiABEggTRCgwk0TzcxKkgAJkAAJhJsAFW64W4D5kwAJkAAJpAkCVLhpoplZSRIgARIggXAToMINdwswfxIgARIggTRBgAo3TTQzK0kCJEACJBBuAlS44W4B5k8CJEACJJAmCFDhpolmZiVJgARIgATCTYAKN9wtwPxJgARIgATSBAEq3DTRzKwkCZAACZBAuAlQ4Ya7BZg/CZAACZBAmiBAhZsmmpmVJAESIAESCDcBKtxwtwDzJwESIAESSBMEqHDTRDOzkiRAAiRAAuEmQIUb7hZg/iRAAiRAAmmCQMZg1jI6Zr3Exh6QJo3qS/r0kaHLx4ybIEePHfNZzdy5c0mxokWkcqUKkjtXLp9xGJg8Ar+MGiunTp3WiTRr0kjKlinlM8HxEybJwUOH9b36detIlcoVfcZLLYFbt+2QmbP/1tXJnDmT3HJjt9RSNdaDBEggAQJBU7gXL16UD4d+JmfPnpU10dHSr8/tki5dugSyDV3w9Flz5Pjx44lmiMFB+3ZtpUun61O8zJ9/9a3E7j8ghw8fkZ433yB1atdMtGzBvrkvNlZ+GjlaDh0+LIePHJEXnnlScuXKGexsnPSmzZit+wQCihYpnKDCRTuBCSRbtqypXuHu3r3HUbioMxUuKFBIIHUTCJrChXJt0qiBfoksWLhY0qdLL33v6JXiCiwYzXPhwgUZP3GSZFIzjQ7XtQ1GkgmmsfCfJc69k6dOOeehOjl06IgsX7nKyQ51p5AACZAACaQ8gaApXBS1V48b5eTJkwKlMm/BIsmQIYPccVuPiFK6XTper6meOHFSzcTXyY6duxzKo8eOl1Ytmkn2bNmcMJ6QAAmQAAmQQDAIBFXhwjTbv29vXS4o3Tlz5+vzPrf3DEZZk51GzRrVpFOH61zpfPnNdzJ/4T9O2Da1toY13clTpmuTK260adVCjql14GUrVsmWLdv0wCJ//nz6mfPnz8umLVtl7dp1sn7jJsmXN4+UjIqS+vXquNaFfx09TmB2t2Xe/EVa4ZctXUrqqXVLI8ePnxCsh69es1b27dsvBQrkl6pVKgnWNhMy0+/atVvWrouRtdExkjFjRqlQvqwyy1bSa9RId/+BgzJtxizZr8zZtoz740/JmjWLNKxfT0qVLOHcCrQMmzZvleWKz8ZNm6VQoQI6vUoVyzvpBXpy+swZWblytZqNr5ZjakmgXJnSgjXgvIqvEQyW5s5fqC+xFl+/3lWyeMkyzQDm6/aXrBUw4S9bvlJWKZ7Zs2eT6lWrSOOG9WXFqtWyLmaDfr5c2TJSt04tfW63fQOVZlGVNuq2ctUa7Q9QqmSUtG3dUnLmzKHj23/QHzajP6i22LBhk+TPn1/Klysj1atVcfUH+xlzjvosXb5CYtZv1P2odq2aUqdWDXPbdUQ7YsC4ek20nDp9WgoXKqiY1xXUw5cgHvrnjh07dfyoEsVVe0cJ6hcp/ha+ys0wEkhNBIKqcAEGCgFKFy99vAyhdHF+W8+bIpIbXry2wt2l1tagcCdNmeasKWZUM/U//vzLKX/Xzu3VizSfHFBK7OX/vqVm9V7T8AL5+dfRgoEGzOyQPydPdZ43J3hh4v96V9V2FC5e7EM++cJEcY6z/54nY3+fIC8+95TmaW7AJPzBkE91OiYMR2O6xtpg2zYttaKd9Nc0O4o+N447UFBG4QZahrHjJ8rvSnEbUe92tbQwVzpe384EBXQ8f+68vPm/D2T79p3OcyuU4kUbPPrgPVKxQpwi37Fjl5g6ofxYygBPSFU12IDCxcDlf+8PddLBCeJNnzlHCqg2XLR4qb5XrWplR+HabZ89e3b54adfZdPmLU4aULxQys8/84RelzY3sC7+6uvvyNGjbic9MM6UKZM88sA9ktAgZI0asL330ccmKX2cM3eBNG/aWFuJ7Bsjfxuj87fDcD51+iy5ulkT6d3rFufWCWVxGqr6E5S4LcgPAme1Rx+8V/dn+z7PSYAEgk8gRVyJoXTv7H2ro2xmKIeY70f8EvzSByHFfbH7XamUKF7MdY0LW9mam0eOHpXX3nrXh7KNiwFF+PW3P6gXXdwMyjyX2BHKwZeyNc/s2btPp2mukceQjz93lIwJt49Q/FOmzbSDEj0PtAxYD7aVrZ041sXhRBeo/DVthkvZmueR1v999rX4WnfevWfvZRwOHDykHfnM8/YRCtQoWzvce45Bjq1szX2UZfgPP5lL0f3hzXcvU7YmAuK/8/4QgXeyL/lg6Ke+ggUDrY2b4pX9HxMn+1S25uFZc+Y6s36Ezfl7vkvZFixQwDULBrfvf4rM36apE48kkFoIBH2Ga8AYpZspU0Y924HSLRlVQlo0b2KihPxom3Qx8l+3br1gtmBLubKl7UvnHGY3zHxhisPMCM/ZM5nOam0Y5rmdyrQLM7VRNJ8pr+S3//uyPDXwYVE2ZXnr3Y+cNGGqrl+3tjY7IvCrb7537sE0+OC9/bUJFDNwKG8IZq6NGtSTWjWry5JlK2Tl6rU6HH9qVK+qZpXXyjll1vzi6+HODH36zNny3KCB8tTjD+kX/oiRvznPDOjXR/Lmya3qFWdODrQM3pk71sgbNawne/fGymdfDUtwQOIUIIET1KVrp/Z6Nj/suxHaTIuo8DgHD2M58D4O02r5cmU1H/gRmHZAvFo1qku3Lh20nwFmrfb6vTcdcw3lDk9ycIUl4+PPv3LqhFkj+hT6OrafGS9rPNtBxccSwLbtOwTlN4OEv+fNV5aE7iZ517HfnbdLKfUbmT7rb23+NzcxqEG/PHbsuIwe94cJlnZtW4vxScDAClYFCPoK+OXKmVMWLFrsxK9cqaIMfOR+fY0Z/g+XFO0q1YfOKatCxowZnLg8IQESCD6BFFO4vovqXsP0HSflQmEKHPDAYwlmgJc4HL28AmX74rNPSrFiRZ1btokOL9bOHeLWhmHaPK62+wz/4WcdFy9hmBorKCXgldKlotRaazkdfFqtwx08dMiJ0k2ZrbF/GP+XUWu82CpjTNebt27TCsWsP+IhbO25f8Bdjrm5/5295Ytvhuv0zpw5q+uFvJR+cElFFZZHKVxIUsqwXa0JGrlKKSazRl6oYEG5t39ft5k0nYmZ+BF1eeCefk5bPPLAABn49AuO0tqs1tF9KVyEwTPeyCeff2NOJUeOHHLfgL5OmgMfeUAeHzTYuZ/QSf58+VQ97nTWOWGihwI1gmUFrLFHr4sxQQIO3Tp30NcYoB1UM+1patAD8VpUdKD6A2WLARsE28WgKM12tt279+pwrI/bgjVtrM1DMHgzChfXsIZA4Z6/cB6XWvD8xElTtFm7sRoUYSnDSIYMKWLsMsnzSAIkoAikmMLFyP+b4T865q2WVzdTs9umEQsdL2uYwX1JjWpVXcr2jHLo2bsv1olaXd23pWb1aval7Ny5W80i4519XDcvXXjNlu9+6F7Ps58xjk/2S75yxQqOskVczMYxsw5EAi0DPmhhBgHIp5pyRrIFZUiKwEHMHvhAWcIpysxI9+3b5zNZzCpt2b4j3nxbsUI5V5pweCquBlCwSCQmmCnaTkVQoLYcP3FCD3bs/gDrgy0ol7ds9n2c11T5GMGMuXixIo4p+NjxuDVhe5CHuC+++oZ55LIjBgJqWiy1a9ZwzPOY7f825ncnLgZazZs01mVDnhQSIIGUJZAiCteXso0Up6kihQtpoihjwYIFpJJywMHL2Dji+MJdvHj8zBb3bVMyrmGStQUOMrbgpXwlid0fN1O5Ujzcx9okxJ4R51SzmeRKoGWA97AtOXJkty9disp14woXOZSjkldspubLVd44pm1NuP2FMV9pZs2a1URN8AivZlt8PXNUmXptwQAhUPGmmy2rO1+kt//AAb+T1QpXxYbJGf3VOMfZCcD6gnX21Wuj5ZknH7Vv8ZwESCAFCARd4UKRYf3QeMnC7BUpyhbbgh667+5kYzRbgkxCcDzBtg8j3lkTtrRcSbyfPHzrvy9J5syZfT5mZn9FixRxHHq2q7VCW7BGPXfeQieoSeMGV9xfHGgZ4L1tC2agMK8bMTNxc+3v0TZTm2fgPW4kSq1z+iP58uZVM/C4GayZHdvP7dodd88OS8p5/nx5XY/tVBzs7TzoD8YrOEuWzNrz2PWAnxdlVT8yjl5wfhr8zMAEn8x8adCHmevtt94s3bt10lugsGVJb1tS28fMujIsG/gCGZYBKCRAAilHIKgKFz9gOAzZyhYfvkhtgpcYnHOMGXHi5Clqj2hDtZ81q3aiwfeDjWBmhjU+X2KbY2HehOnSvAQXL1mu1uWu1o9hEAPvZWyDgbRu2Vyuu7aNXts1ZmDssVy/YaOzJoztMvBohSBdPONLoJjNGm5SypAlSxa99ou0p06fqcuMtUOIzUEH+PkHplO7LvDUxfqyEbN9yVwndCyk2sgMfqBk4DFuLBlI0+afUBr+hHv7w59/TdXLJzBboz2x5mvaCdYUbPVJithbimL379dbveCICDl85Kja/jREsF4PwZpwkSKF5I23P9DX+IOBr1lbBl/bgW+HWvagwnVQ8YQEUoRAUBXudyNGOsoW+1sj7StTwSTYrUtH+ezLYTpJmOYGDX5ZKpYvrz6CscVlcsY/5GCLrVThWTp77jypV6e2dGzfTs2Kasripct0dHgSY422sDKBw9nLnqFVUuu1kPbtrhF4fxsljRcoXuinT59R3sjbdRz8gRMP8oXgIxe2vPHO+/pFixcx1isDLUNTNXPG95IhUGBPD35Frx9jcGCbvO08/TlHXTCjw2ADytKW8mXL2JcJnsO6gg9eGHn7vSHaYQiDDHuPr7mfnGP3bp3lk8+/1kmAg+4Pqi127drj4uDL2cvffKFcYa42zlRvvPOB9ljHoM52ssI1rBXY/47vZRtP7W+//0lu6t5F8uTOrbaKzXBli8EWhQRIIGUJxL2Fg5THkqUrdErYtvJv+Y5yUqsO02lt6ytAeMli+4a9vouPKfTqcZMrC9vpBooSL35jQsUHQ6BkjGDbD7bd2MoWnqzG9IuvLuFzmrZgdmgrW8xeYU40AjO0LSg34sOTGhJoGTq1v85R5ngeL3cMEKBs8SUje+0V9/2R0qVK6miYFXqVLQYGtrd4YunBrOvdVw3PbjBHueBRHizBV6psczo44OtO9qADH+PA16CSKhg0DX56oPZYRxrIAzN1fEHMKGGE97ipm+NAd3P3rgjSgrLgH8/AfmD0LSPoc7DYUEiABFKWQFAVbr8+t+ktDalB2eIfX7iSYOsKvibl/dd28CK/9prWah/t3S5lhPTuu7vvZUrAzD6xDxL7JGH+9b4AsR6JvO6+6w5XseD5/cyTj2mPW/sGthFh28erLzzjMhViXzTWsY0Z2Txj1oUDLQPq/p+XnnPVCfWBcnnsofv0PmKTR2JHmzf28aIP2coaM7vr2rZxefum92Mry9PKGchWhCgDlPATjz4oBRMw9dtlSazM3nvY04xye/sD2g5eyo8+dK+zLu9P2b3p4xp7wLGnGnWy8wFz1At9wd4NgG+Do89ge5NXwBfLFo9f2pvrvc9rEiCB4BJId+zkac/OzOBmkFZSw1Yh7LEspDyfE3J2CpRF3L7Yw0oxFFAzFreDkq+0MGPGd4OzqbVk+2XsK66/YYGUAd8/xp5TDBbMIMLffBKKh32m6dOnU98WdjsmJRQ/oXCwwZo7vnWNdeeUFvQHlB0OVSmZH75whXVbKOIrbe1BW5p9wBhw5VSDmCs9k9KcmD4JpCUCVLhpqbVZVxIgARIggbARuLLdNGxFY8YkQAIkQAIkkHoIUOGmnrZkTUiABEiABCKYABVuBDcOi0YCJEACJJB6CFDhpp62ZE1IgARIgAQimAAVbgQ3DotGAiRAAiSQeghQ4aaetmRNSIAESIAEIpgAFW4ENw6LRgIkQAIkkHoIUOGmnrZkTUiABEiABCKYABVuBDcOi0YCJEACJJB6CFDhpp62ZE1IgARIgAQimAAVbgQ3DotGAiRAAiSQeghQ4aaetmRNSIAESIAEIpgAFW4ENw6LRgIkQAIkkHoIUOGmnrZkTUiABEiABCKYABVuBDcOi0YCJEACJJB6CFDhpp62ZE1IgARIgAQimAAVbgQ3DotGAiRAAiSQeghQ4aaetmRNSIAESIAEIpgAFW4ENw6LRgIkQAIkkHoIUOGmnrZkTUiABEiABCKYABVuBDcOi0YCJEACJJB6CFDhpp62ZE1IgARIgAQimAAVbgQ3DotGAiRAAiSQeghQ4aaetmRNSIAESIAEIpgAFW4ENw6LRgIkQAIkkHoIUOGmnrZkTUiABEiABCKYABVuBDcOi0YCJEACJJB6CFDhpp62ZE1IgARIgAQimAAVbgQ3DotGAiRAAiSQeghQ4aaetmRNSIAESIAEIpgAFW4ENw6LRgIkQAIkkHoIUOGmnrZkTUiABEiABCKYABVuBDcOi0YCJEACJJB6CFDhpp62ZE1IgARIgAQimAAVbgQ3DotGAiRAAiSQeghQ4aaetmRNSIAESIAEIpgAFW4ENw6LRgIkQAIkkHoIZAxmVaJj1kts7AFp0qi+pE8fGbp8zLgJcvTYMVc1G9avK5UqlneF4WLBosWyLmaDK7x8uTKqPg1cYYFcLPxniUSvW68fKRlVQlpe3dSvx7fv2CnTZ85x4t7W8yZJly6dcx3IydZtO2Tm7L/1I5kzZZJbbuoWyOMRHTc11y0Y4MdPmCQHDx3WSdWvW0eqVK4YjGRDnoav39Hp06dl5G9jnbJ0bH+t5Mub17nmCQlEGoGgKdyLFy/Kh0M/k7Nnz8qa6Gjp1+f2JCuIYEKaPmuOHD9+3JVk7P79PhXuyN/GyOHDR1xxd+/ZkyyFu3LVGpk7f6FOMyqquEvhTpw0RdasXScHDh6Ueupl2K1zByfvPXv2OkoSgb163Jhknrt373GllZoUbmqum9MZknGC/m/6dLZsWf+1CtfX7+jMmbOufo0BBRVu0jrLhD//klVr1sohNTirXauG3Ny9a9IS4lOJEgjaNBSzLzMTXLBwsXz97Q8CJRyJsjY6Rg0MzrmKtlspOPNict1IwYvFS5erwck62bN3n+zbF5uCOTFpEiABEkiYwJJlK7R1b696Dx05cjThiLyTLAJBm+GiFJiFnTx5UmD+mbdgkWTIkEHuuK1HkmdmyapZIg9fuHBBVq1eI3Vq13Ri/bN4qXMeCSeVKlWQ++/pp4uSPn26iDHRRwIbuwxVq1aSB+/tbwfx3CJwT78+cuLESR1SpEhh6w5PSYAEQk0gqAoX67b9+/bWdYDSnTN3vj7vc3vPUNfLZ34oH5QtBOu1tsKdv/Afn8/YgZOnTJfDR+JMznWU2aVC+XLObZitJygTsZH27dpKjhzZzaXriMHIjp27ZF/sfid80+at8uvocZIje3a5vt01cuzoMdmwcZNzv2b1anrgsnT5Slm/YaMOL1UyShrUu0qPTJevXC27du2SYsWKCUxrZcuUcp690sm5c+dUmptk9dpo2bJlm+TOnUtKly4pVzdtLFmyZEn0cZtJm1Yt5JhaL1+2YpVOBwOw/Pnz6ef9yQNWhllz5jr5NWvSSIoXK+pcw9w1eep057pRg/pqUJde1q2PW3fPpNana9Ws7tzHiT/57lImd9NX8cx1bdtIrlw5carDcR8CK073rp2cASTWR0+eOqXvNaxfT0qVLKHP/ckTEdEHzHJDsaJFpL5qy8VLlgksMEWVcmx/XVud3lHVFxYtWSo7VXyUJW/ePFKyRAmpVaOaau94Pjqy5w/6lemz2bNnkyKFC8npM2dk3PiJTsz2qr+dVX1g6bKV2qyYKWNG3bdbtWiW6EDPLj/M1R2vb6frtFy1f4zqozDvVq9WRerWqeXk5c372jatJE+e3M79LVu36QE7AvBbMAycCEk8CWY/tYsQu/+ALFO/SZhjwbd61SrSuGF9WbFqteMPUq5sGc0guXX3t1+Z8qF9YIrHEctW6FNRqt/Uq1tbcuWM69/4vWkLm/Uu2rBxs/wyaqzkzJFDv4sCSc/E5dE3gaAqXGSBlxKUbkb1o8XLBC8ynMPpJ9wCh5HVa6J1MaAUYPJGeQ8fOSp42RspU7qUbN6y1Vw6x0lTpjlmZzxnK9xjx0/IpL+mOXHhmJWQwv1r6gzZum27ExcnWFf+c/JUwYsLCnfnrt362kS6oUtHXdZly1copgt0MBy/8ILCy8TIytVr1fU0ueXGbtK2TUsTnOBxv3phvPTaWwIHFFswAPlFOaS88sIzUrhQQfuW69xmklFZNP5Qa0FGunZurxWuv3ngB27X5fz589Lz5u4mOf0itu/jxbZjxy4X966d2jvx/c0Xlhi77UqXKqkHMkjol1HjXD4ALZo3kUIFC6qBxXEZ8/sEJy+8aCH+5om4dtnxMsRSDJYYIFUrV9LKBgPDr4Z97wwU9U31B3ExQMNa27XXtDLBlx3t9jF99szpM676Vq5YQT776ltXH1ikLD5Tp8+UlwY/rX6/GS5LFwHoo4YbBrOloqLko48/d8XFC/0qZUm6p/+dWnl7865RrapL4W7cvMWVZrAUrs0huf3UVBBOov97f6i51Ee0C5wdC6iBJhhCqlWtrBVucuoeSL9CniNGjtLth3MjxiEU/QZWocrKijZz9lz9DjFxcMS7CO1q3kUI8zc9xKUkTCBoa7h2Fvhh39n7VmdNd4Zy3Ph+xC92lLCcFy5UyPlxw7nLzIwWL13mlKdihXKSKVPQxyFO+sE8wazUVkB22j//OlqPXO0w7znWrP/z5ruuF60dB9aAdz/4PzmjZkT+iK1sTfxA8siZM4eamZc2j+oZl3OhTpaqwYYRzIrg9Z2QBJIvBhSYHRsxFoRTavbqdbjDjBGycdNmfTR/yilv9kDyNM+ZIwZ8RtmaMAwIh303wlG2UGoVypVVA7kcJory0h3jGiw6NwI4Gfrplz77ANbzJv011a+U0FeQji/B+uDsv+OsXb7uhzosuf0U5T1w8JB2EvVV9k1q0GCUra/7gYYF2q+wwwGDJSPoL3ivof9AMLge8skXfvvYBDs9U660eEwxzWKULpQXRlFQunhBYoYQLsFLod5VtVVnnKWLsFDNHjC6X6hGpUbqXVVHFilzeEpK3zt6aVPk519+q7ZsHNJZYbbaTc1iYc7zV1Cf/PnySe9et0i+fHn1jNiYKJHGuD8mSv8740z8vtIcPe4PR6FgNPvU4w9LieLF9Ij3rXc/0h7nMEX9Ovp3ufWW+Jmmr7RMGH7UGDlHlSiuR/nYtmGUlj95NG/aSPDCgiDvQ4cPS948ebRpOGZ9nCkd9xorc3JiEmjdKiv+sA5AYA6FbFbmda9sVgoX1gszWMN9mGmzZM4sI37+LaC6etPGNZR/eaVUYRqH4sfA0Mhzgx7XvyGYFp989iUnLyzfdO5wnYkW8BH9qEvH66Wu+m1gQDHsux+dNKAsO1x/rXN9pRP0bZR/hVri+OmXUU70Mb//EdbfvlOQSyfJ7adYFrLbplaN6ur320H7sPzw06/ajOvNM6nXgfZlW9ljIPnO6y9rfxqYjp9/+b+6GFC6G9SgERMj+N18M/xHwQALgkHvzd27qBluNn0dSHoYEFISJuD/2z3hNAK4czGAuMGPGqdw68UrXPWigklu/cZNTmZYb4IZLyUFSg2CWZpRuHly59azlyvle+GCm+ETjz0oBQvk14/hx4OZF35YECiHxCTm0ton4rRo1lSPgLFGmFkpD6wZm5m/L/O6r3TxEnvx2Sdd64qB5oHtUcN/+NlJfvmK1fpFbfYymxtNGie+NzrQfKtWqewo3O3bd+pZpVH8Jk8cYfKE2Mq/2iVzcqB56oSsP/Dyh8IysvaSedlcw8TfUq2rllZr96+9/JycP3de38qcOX52buIGcsRaeadLChtr5nAoNC/Zvfvi+pKv9Ly7ELBsZHYqXNO6hX6BT5sRN7jFOjTWMCNBgtFPt27d7lQFM8j7BvTVSg2BAx95QB4fNNi5n9yTQPuV6RfIF4OCn38dI7XVAK6k8jH435uvilx6hWAAjOU+SHa1Xm4Egz57uSyQ9EwaPPomkGIKFz9GjJrMjKvl1c3Ui7Op71KEKBRlqlC+rDYfoiOePHlKxo7/08m9YIEC2iHF+yJxIkTYCX7oRtmiaLAqQHEYhWs+eOCr2JglmREt7v/511T9v6+4mGn6I1iPs514kpJHdjWqxmzfrDfBjAyriG1OhjOO7UzlLVtS8sWs3BasTxrlahzHMCvYtn2HNsVh7dxIVeUbkJQ8zfPm6J1JYqYB5YCBIgQmZ2N2Rjh8Ejq1b+d6OZq0AjnWVM5XtkRFlXAU7mm13uuvYJBmS9UqlcQoXITHKsec3Lly2VHCch6Mfrp9xw6n7DDXwg/ACJZG0D/Rh5IrSelXtWpWc/2W0QamHdCX6yunqU4drnccA69UxmCnd6X8UvP9OKN+kGvoS9lGgtMUhnZQSvaLAQ5GRurXq6NP/VG43jjea5NmSh5zKK9Ir8Cz04ht8jJh5hjIXjvMTvyR4sWLuqIlNQ/MuIzAyQ1sMdM1cqXZbVLyxXIHlJgRmJXNzL50qSjB/xAwjV4X4yhBhGGAkJQ88awtME3bgpfjoIGP+PyYA5Qw2MD0D6/m5IjdZ5AOZj5JEe9z3nS9jnnIw/u7ueix4CSlHFd6Jhj91P56nbeeyD9r1isz9KfuSelXFSuU19sxbb8EwwRtAKfLV/77lnYWNeGJHYOdXmJ5pfZ7QZ/hohN98fVwx7UfL8/IULbxTQm3eGMujQ8Vvb5rX3vP06eLfyEfOOCe9cH1PtSCGSx4YxBhZKfaGmQEM/aEBNt18IM0Svnuu+7QWzh8xU9vpe/rfkJhSc0DZn18OAUCxYItFsb0jjBjtsS5L0lKvmAI73TjDLVq1VrHIx1rkmh7M+s2nrnIG7NtmOPwf0rwxPauN197Uc+ssV1jy9at6utkMXp929Qds5dI+GQjtrlh7d7Irt3uGV5xtWUNMzZb9kfA7ygp/QXtfvJkXP18/fa9dUed7d8prv2pe1LKhrSbqy19TRs31EsfWBqBRQY+CmbQA+sedjz4a3UMdnooY1qUoCpcvBy//OY7l7LFhy8iTbB/0SuYTWA7SGJSqFAB58W/Qu1vO662AmHrD14i9r7GxNJI6J7Zz5nQfV/hUJZTlDdi29Yt9W388LHdyUhJ9SnJxKSM2mtr1iLhBIL9u+alMH7iJJk1e55+vJSa3d0/4K7EkkrwXlLyQFtgK4XZwvXzL6Od9DGI8M4EnZvWSVLyhQnUKNzlK+M5li9bxjX7Nc5VyM5WdEnJ0yryZadwlsE2E0jhwgXl0QfvVWfN9PXrb7/vOJf5euHrSCH+M2rseL3dBH0IL/bxEyY7JcDsN2vWLGqAmNllJv9bbRuEoxxkX2ys/mCO81AITwJtu0JqndOYjGEJwTorZoKQ2X/P08tV3uLjXWEvEfhb90DL9t6HHzt7/GENMg51eE89+NggxzqzXW2p8yXHT5xwBSc3PVdiafwiqAr3uxEjHWWLPZKR+JUptDde6Fgfs51i8CGLKwlmQGaWgxfKsy++6qSDEWOgks0yO2GD+guvvK68VAvJg/f19zspKKOFi5ZIVlUn7As0631IoHKliommgzYyChdepf996z2t6LZt2+44ECGB5HiWJzUPWEaMwrXXmptewVnKVDgp+WLvKz5m4RWzluoNxzUGBkaSkqd51tcRpkrsiYTgiC1A2NOKjy3Ya8j5lKd6JAj60DPPvyolShTTHtb2b8I44UAZ4yMfZpAAh8VnX/iP2ttc4LL+G8o6Bdp26J/44IWRt98bopcWTiiPXzjd+ZKk1j3QsokyeJl+g/6MdfMo1SZYerDfD/nVzgYjib6LkpCeSZdHN4GgKtwlS+P2STZqUE97W5rZkjvLyLjCF5pshQvv2CsJfmT4aIXptHihGKWA9LA9IxApo8yFxgkGz+nvOV/6kpU/6cDLGZ/ts+thnoMjR+uWzc2lz+PVzZpoxyl8cAOCl7j9IkcYPBbxxaGkSlLzqFOrpms2YPK/kjnZxEtKvuXKljaPO0fMzMxXp+CkZrY4mQi2s1VS8jTp+DoiPfuDDdhz7WvfdY8I+def8I9zQNl4nezAEB70RvBhF1jCjEA5GAVRt47v5R4TN6WOgbYdBujYbWAGDiiXGYxjaQEfvrA/pmPKnZS6B1q2m27oIq+p/fV4T+H/79VEyCt4d9jvh8TeRUlJz5sfr+MIxC9KBoFIvz63qS8D3RDxyhZVvcr63ByuzZeCcJ6QYGQOl3/sfTWCHxdmgNgL60tsRxzv/c7KUxD/MocdJ336OG9H2+vR+5y5hiJ44lFsC4pfq0V5sCfwofvudszD6dXnDxOSG7t11l+lgjndLgeUCz7V+PLzT7u2DHjTsde1vffMdVLywP5teJPaAlNygUtboEx4MOuGLRJe7+cypUqZrASmZVvACHuEbQmkromVHWnCBDt40ED9qUA7D3OONnv84ftc66bmnjn60z4mbnKPjzxwr/KSr+RKBtaBgY886HxKEDcxIO9x0w0u5yz05dtvvVnVtZ7reXNh900TFsjRHw6BtB3yfvrJR/UyjF0OKOG432TcVj37Hs6TUnc8F0jZ4AD4jCpbubJl8OhlAivJU48/5Ppsa2LvoqSkd1mmDNAE0h07efrSriwSCYTAqVOn9UcZ8Em+UAqcicxWK8woXnjmSZ09PjV4TH3PGUopqZYFjIZhvs2rRr/+eFkmpd6hyMNXucKRbzDzhHPcQfV1I3yGNGfO7KqN8ionraAaqHxhSzQM+9XhIGnks6Hv6VPstz2gzN4FC+ILXomXER82Qd3ghBRJEkjbIe7+Awe06RbLVZAPh37qLMtg2SFu/d1dw6TWPZCy4fOocGbDEhj2+uM76ckZvAQ7PTeR1H+V+K8h9dc/yTXE7KNo1tAq28QKi71/+D85gh9iSg8gQpGHLwbhyDeYeWIQBY9V/B/pgq9u2fuxEyuv10KQWNxQ3guk7RAX39cOVJJa90DKBktZMH/TwU4vUGb/9vgJ2xr/7TVj+UmABEiABEgggghwhhtBjeFPUbB1xzjxwKGJQgLhIoC1vXZtW4cr+4jOt5HaAVBcredCwIlCAiDANVz2AxIgARIgARIIAQGalEMAmVmQAAmQAAmQABUu+wAJkAAJkAAJhIAAFW4IIDMLEiABEiABEqDCZR8gARIgARIggRAQoMINAWRmQQIkQAIkQAJUuOwDJEACJEACJBACAlS4IYDMLEiABEiABEiACpd9gARIgARIgARCQIAKNwSQmQUJkAAJkAAJUOGyD5AACZAACZBACAhQ4YYAMrMgARIgARIgASpc9gESIAESIAESCAEBKtwQQGYWJEACJEACJECFyz5AAiRAAiRAAiEgQIUbAsjMggRIgARIgASocNkHSIAESIAESCAEBKhwQwCZWZAACZAACZAAFS77AAmQAAmQAAmEgAAVbgggMwsSIAESIAESoMJlHyABEiABEiCBEBCgwg0BZGZBAiRAAiRAAlS47AMkQAIkQAIkEAICVLghgMwsSIAESIAESIAKl32ABEiABEiABEJAgAo3BJCZBQmQAAmQAAlQ4WhrywUAAEAASURBVLIPkAAJkAAJkEAICFDhhgAysyABEiABEiABKlz2ARIgARIgARIIAQEq3BBAZhYkQAIkQAIkQIXLPkACJEACJEACISBAhRsCyMyCBEiABEiABKhw2QdIgARIgARIIAQEqHBDAJlZkAAJkAAJkAAVLvsACZAACZAACYSAQMZg5hEds15iYw9Ik0b1JX36yNDlY8ZNkKPHjvmsZs4c2aVgwQJStUplKZA/n884KR24c9duWbJ0uRw8dFhnde01raRI4UIpnW2y0t+6bYfMnP23TiNzpkxyy03d9PnCf5ZI9Lr1+rxkVAlpeXXTZOXDh0mABEggNREImsK9ePGifDj0Mzl79qysiY6Wfn1ul3Tp0oWd1fRZc+T48eNXLEfVypXk/nvukixZslwxbrAivPL627J9+05XclUrV3QU7udffSux+w/I4cNHpOfNN0id2jVdccN1sXv3HkfhogxG4a5ctUbmzl+oixUVVZwKN4kNtHzFKpk6Y5YcUoMw9Mdnnnw0iSnxMRIggUgiELRpKJRrk0YNdN0WLFwsX3/7g0AJ/1tkTfQ6ee+jT+TChQshKfLS5StdyhYv1qJFCkvOXDmd/DFj3LR5ixw4eFBOnjrlhPMkdRPYtHmrrF4TLbB+xO7fn7ory9qRQBoiELQZLpj16nGjnDx5UqAo5i1YJBkyZJA7busRETNdlC9PntxydbMmOJWjR4/K+g2bZMfOXfoafzZu2ixffD1cBvTr44Sl1Mn6DRudpDMps+yH/3s9Yjg5BeMJCZAACZBA0AgEVeFi3bZ/3966cFC6c+bO1+d9bu8ZtAInJ6FSJaOkS8frXUls275D3njnA20Kx41Fi5dKk8YNpWb1qnL6zBkZN36ijo/Bww1dOsrylavU7GOdVth333WHvnfu3DlZGx2j7q2Wvfv2SYnixaV1y+aSJ3duGfP7HzpOOkknHdtfq03EGIysWr1Wh+PP+fPn5dfR47TC7dzhOhn3x5+XWQfmzV+kBwdlS5eSenXrOM+aE7usCLv+2mt0usuUeXLN2mi9pl6+XFlp0byJZMwY3+yTp0yXw0eO6GTq1KohFcqXM0lqU/yESVOc6/bt2koOte6dXMHs3gw4atWoLoUKFZB/liyTDWoA1BTsa1TTWcBCsk2Z3FF++AdkUuUuVqyotFCDpvw+1tyPHz8hK1atFphkz6o2KVumtFzT6mo5cOCgzJm3QKeZM0cOub7dNfrcLkeJ4sUcC42p3x8TJ8sJNYCENKh3lZQuVdLc0u0TSNmOHj0mi5YslZ1qgLdLmeTz5s0jJUuUkFqqrqgTBOvfKD/6khHU6ZdRY/Vlh+uvlezZsulz9Bn8xlCGHTt3SsYMGaVUqSipVKGcVFHLIxQSIIHIIxD/5g1S2WBahtLFSx3reVC6OL+t501ByiG4ycC555EH7pF33h/iJDxPlRsK98zpMzLpr2lOeObMmQROWBAMLu5WRyiFd94fqmfH+ob6A3Pg5CnT9Ozefr6xciaDgrfD8AzM2CasdYvm8ufkqSYp5wiTN/6vd1Vtnwr37JmzThp4qFzZMvLlN985AwmE4QU9dfpMeeKxByVvnjwIkkmqnFgjhqDtbIV7TL3sTblwv2H9ukFRuHASM2u9yHulGnyYdfYyakABhYtBzJv/+1C2bN2GrB1ZsmyFQBGij6E8Ro4oi8VzL74mp0+fNkGyTCn2PydPkevatnHqAWuCUbh2ObDmbJZETAIYbJj0oKiNwg20bAsWLZavhn1/2XIFll4w0Lq5e1eBsxwGFjZvlMPVN1perRXu9h075YOhnzrtZsqLwSAEg4M7e/eSTJmC/vM2WfFIAiSQBAJBW8O188aL+87etzovsBnKcen7Eb/YUSLqvEL5sq7ybNi42XVtLoyyNdc4/vTLaJeyte99+/1P9mVIzz/7cphL2ZrM9+6LlR9/+tVchv04f+E/jrI1hYGS+UA54HmVrbmPIxQYZooQxH/vw48d5agDL/05efKUjB4XZ2Www5N6HmjZMCAb9t0IR9lioFZBWRpyKAVuZORvY2T3nr3m8opHxDeDJESG5Qbr/0YwsJo1Z6655JEESCBCCKTYENgoXYyyZ86eK1C6mE3CpBlpgpcgtuLs2btPFy2hbUS4mS1bVqlSqaI2V+JlOn3mbKc6xqSOFyBmV3gxeqWGmjk/9fhDMmXaTG1GxX28fB9QHtKQ3MoM/dTAhzF1lrfe/UiH4U+bVi2kft3aypSa3wlL7ASKocN1baVRw/qyTynZTy0FjFkizKy+zLKJpZmS92D+LVO6pN6iBfNy9Lp4s+o9/e+UunVq6e1dUKxYd0f9hn7yhfznpee01cBei8+fL5/0u/M21VbZ9IwRJvxgSaBlg+kcnvtGnhv0uP4dYJb85LMvOYMNKMmWLZoJ+seMWX8LBiIQzMgfe+hebX3Iny+vnvmvWbvOJCfdu3ZyZuxDP/1S9zvcxPNtlDmdQgIkEDkEUkzh+q5i5Hot586dy1G4WB/zJVDKzw0aKFmzxm0d2q+27ODFb6RXj5uUUoxbX4WJcP+BA8qEO8vc1sdcOXMK/sf6oRHsZbVNuZgBeaW0Wp+z43jvXxQ327p1aks3teYMKVa0iNyjHMGGKAVlZKsybUeKwu1/pzIPN4g3D5u1f5QVg5fiao3TzAChRIb/8LOuBmbrkK3btuuj+QOTecECcQOTvnf00p7eZjBl4iT1CEc7I/6UzduXfvltrFaspVW9Xnv5OTl/Lq6vYbkCnur58uZV6/vRJgvd1xJr9+kz50gu5dkOUzy24hnljsEfhQRIILIIpJjCxezvm+E/Omt1La9upma3kfshBHyww4h5WZtrc2zTuoWjbBG2Ta2l2VK1SkX7Uq0DV7tM4boipOBF7VrVXalXrlTBdR0bGxnbTaBkbGWLQsZs2OCUFcr0xVffcK69J7BGwHHICNKz2w+WFqwJ75k6w0RJ1jHQsmHmDuVnBmZmLR6FQHgVte+6U/t2iQ6m7ALDHwLKdfOWrToYW8ZgsjYC56+2bVpJsyYNTRCPJEACEUIgRYbBvpRtpDpNoR3w0j546JDTJEWLFHHO7ZPiReO8SU3YkSNHzak+5sie3XUN83O4BOZUWzJnzmxfyikf+3rRbrZ4r+17wTr39VWtgwfjvrrlTx6Ie/hwfHzjxWs/6yvMvo/zixfcdUeYUZI4NxJo2TAAGDTwET1zNWmYI9KHgx2WDmzPZHM/oeMjDwzQ68C+7sO0Puy7H2XsJe96X3EYRgIkEB4CQZ/h4iWNvaxYk4I0a9IoYj2UDfIRP/9mTvXR60Tlumld2DMpBONDBbb5z15XtB4LySnWbW3xfkAhqkRxfTt9uvgxF9Z1bQlX+WE+hyKCYN/0jTd0tovlOs+KGa36PKcRDJzQBzGzNbJ9R/xeaxOGY/r08XEOXfLUNvexHceYZ00YjoGWDc+ULVNK3nztRb3WDIe8LVu3Ko/kGP1BE9yHTFNflsJs1x/Bmj/W+dFeMWqNGB9H2bhpizPrRRpTps24bAucP2kzDgmQQMoRCKrCxYgdW1FsZYsPX0SKXFTlg7MKBPsr4eWKfbbrYuJNmJiR+OtsYr/okeaosePliUcf1C97bCf5/Y9JCA6KwNs2EJmotsPArJj90qx71JjxrsejlAMbBHtgzex+hfo0IxQN9tqCk9mD7HowBBeVKlZwFO7S5Su0wjWz1LVqa9Q3w+NMqDDJvjj4KSlUsKCrVNg21FGZaSEYNCANX1K4UCEnGNuSNmzcJNirDBk9zs3LRAy0bBP+/Euw/QdSuHBBefTBe9VZM339+tvva2WJi4QGN6dOndZxzR9s/Rnx8yh9iQHDoCcekUYN6unrMb9PkPET4voc+gv6IPozhQRIIDIIBFXhfjdipKNsGyvv2Ej6yhRwY7/n/Y88mSh5fC3La35N6IHChQoK/jfOOzHrN8pTz72kvVBxbvZwJvT8lcLttb+ffx0ts+fOk3rKGcook8Sex4cWBg1+RSpVLC971JYTU0Y8g5ew+ccasB5oBhwo77MvvqpmZKW1IghUySdWnkDu4QMco9XgBYJ6YA0Xe25hwsdgzph6K6qPPGRRpnLsTf7hp/htZ1A8/yxdpveswsnJxPeWAXW35e33hkhlpez3qfVtr0XAxAu0bFhmMGnhCM/1q9Q3sfGNbHvbUz7lWW3EOOXhGrPsp1U75syZQx5WpmR4YJv0cB/WJOwzPnf+nCxU+32NoO9Q2RoaPJJAZBCItycGoTxLlsbNJDDihneobdYLQvIpmgReUHf1uc3ZO+xvZj1v7u6Kqj/koGaKUF74BxGSI8bsizSgNPAPHeCjB/4InGdQhhUr8fUrt3n54fvvdtoGJn/U3QiULMy5OOIDCuEQeCU/dP8AJ2swxRexsNXFKE9sl7nphq46Drx027Vt7cTHCVhhIIH4GHT4kvLlyugBk7mHuHBqgkLDRy58rcEHWjaYxPFJUSOoB9ZsvR/C6HHpX1xCvDLKBG0LHKPgPHb27DlBn7D/EQtsEXp/yCcy5OMvXO2MgSOFBEggsgjEv2mDUK5+SmHhX7X5tyhbzADKlS2jTcj/feV5waw8UMG+SZgJ7Q8ZIN1W6otR5l/RCTRNE/++u/uqz0QWM5f6aCtH1w3PxY3dOitv1ZauUMzG+915u1SsEK+AsGVo4CMP6JmTiQxlhv3SvXvdYoJcx/QZfHcbf8vmTzx86ethpXSrVqmk96KaAqBsYP76q8/rtVETftMNXfSeVDttbLGBlcVWUCY+jrBkwKHJnunieSjoRx+8R3Jkj/84hf1cIGXDbHXwoIEJ9i0o9scfvk8rUpMHZtn4BKl3hprh0sBogPqkKO6DhVeg3G+9pXtE7wjwlpnXJJBWCKQ7dvL05e6ZaaX2Qa4nvJ3xOcgCl/aABjn5RJND3gMHPe/Eefzh+7UTDmZtMJHi3/61BwVOROsE64WHlMev/dUi63ZYT7HnGVti7NliQgWCMxGUKcywkL+UA9HP6otgECipoe+/pc/tP9gvi7268JrGd7MDEX/LBmeugwcPqW9XH1Vly64+r5lXlSd5qzrHjh3X+71RXwwwbHN0IHVgXBIggZQnkLxfe8qX71+VQ66cOUXUf5EkmLH52nrjq4x4WRfNGv+JQF9xwhUWyCAmKR/0gJKFuTgp4m/ZsMSCsiWlfAmVC4MKM7BIKA7DSYAEIoOAb9tgZJSNpSABEiABEiCBVEOAM9xU0pTZsmZ1OQ55tyylkmomqRrlypRx2GDfLoUESIAEwkGAa7jhoM48SYAESIAE0hwBmpTTXJOzwiRAAiRAAuEgQIUbDurMkwRIgARIIM0RoMJNc03OCpMACZAACYSDABVuOKgzTxIgARIggTRHgAo3zTU5K0wCJEACJBAOAlS44aDOPEmABEiABNIcASrcNNfkrDAJkAAJkEA4CFDhhoM68yQBEiABEkhzBKhw01yTs8IkQAIkQALhIECFGw7qzJMESIAESCDNEaDCTXNNzgqTAAmQAAmEgwAVbjioM08SIAESIIE0R4AKN801OStMAiRAAiQQDgJUuOGgzjxJgARIgATSHAEq3DTX5KwwCZAACZBAOAhQ4YaDOvMkARIgARJIcwSocNNck7PCJEACJEAC4SBAhRsO6syTBEiABEggzRGgwk1zTc4KkwAJkAAJhIMAFW44qDNPEiABEiCBNEeACjfNNTkrTAIkQAIkEA4CVLjhoM48SYAESIAE0hwBKtw01+SsMAmQAAmQQDgIUOGGgzrzJAESIAESSHMEqHDTXJOzwiRAAiRAAuEgQIUbDurMkwRIgARIIM0RoMJNc03OCpMACZAACYSDABVuOKgzTxIgARIggTRHgAo3zTU5K0wCJEACJBAOAlS44aDOPEmABEiABNIcASrcNNfkrDAJkAAJkEA4CFDhhoM68yQBEiABEkhzBKhw01yTs8IkQAIkQALhIECFGw7qzJMESIAESCDNEcgYzBpHx6yX2NgD0qRRfUmfPjJ1ecz6jbJ5y1bZtn2H7Nm7T4oULiRly5aWcmVKS8moEile7sNHjsq48RM19nTpRG7o0lGyZ88ezGZgWiRAAiRAAhFIIGgK9+LFi/Lh0M/k7NmzsiY6Wvr1uV3SQaNEiOzff0A+/3q4bNy02VWiTZu3yLwFi3RY4UIF5dGH7pOCBfK74gTz4vjx4zJz9t9Okq1aNKfCdWjwhARIgARSL4GgTUOhXJs0aqBJLVi4WL7+9geBEo4Ewcz7mRdevUzZesu2d1+sDH7pNVm+cpX3Fq9JgARIgARIIFkEgqZwUYpePW6UBvWu0gXCrPHb738Ku9I9d+6cfPblMBekHDly6MHB7bfeLNe3u0by58vn3L9w4YJ8+sUwOX/+vBPGExIgARIgARJILoGgmZRREKzb9u/bW5dp4T9LZM7c+fq8z+099TEcf0aP+0OOHj3mZI0128HPPCFZMmd2wrp2ai9fDfteUGYIzOL/LFkmDevXdeLgZOeu3bI2OkbWrouRjBkySJRa861Vo5pElSjuiocLKHrEXb5ytezdt09KFC8urVs2vyyeNwBWgW3bd8qatdGCmXmmjBmlWLGi0qJZE8mfP35g4H3OvsZgYZNap167dp2s37hJ8uXNo9ano6R+vTqSO1cuJ+rU6bPkwMGD+hrr140a1NPnBw8dkinTZjrxalSrKlUqV9TXGzdtkcVLl+nznGrgggHL5CnT5fCRIzoMA66iRYvI8hWrZOWqNXL02DEpVTJK2rZuKTlz5nDSNCf+1vf0mTPO2ncGxR5r37BErF6zTrXvUbn7rjt0kqg72hEMd+zcqdopo5QqFSWVKpRTdahksuWRBEiABEJOIKgKF6WHaRlKN6NSFHPnL9RKF+e39bwp5JVDhov+WerkiwHBoIGPuJQtbuIF3rtXD60cT58+rePP+Xu+o3DPnTsv77w/5DKT9KLFS2X02PHSplULubl7F50OHoYSeef9oa74q9dEK8U0TW66oYtO39cfKOk3//ehbNm6zXV7ybIV8sfEyZqrdxDgiqguDhw4KC//9y05efKU59YC+fnX0YLBjzH9r4leJ8uWr9Tx8uXN6yhcKLFJf01znoep3SjcWXPmOgOpEsWLaYU7SdXr8OE4hQsHsB9++lWwNm4EihdK+Xk10ClapLAJ1oMSf+t75vQZV5kyZ84kY8ZN0GmhXe9WZ9t37JQPhn7qlMVkZJYIMBi4s3cvyZQp6N3eZMUjCZAACSRIIEXePFC6d/a+VWcKpTtj1hx9HmqlC8VnZnAoQJnSpXzOsnAva9Ys8tG7b+DUJTAxf/TxZy7l6YqgLqZOnynZsmaVrp3b61s//TI6wfi/jBrrfVxfI58PlNOZV9nakTELx0y0mJpB+pIjaqb32lvv+lC2cbGRB9bW4RRWsUJ5qapmfEbhYlaLwUaWLFlcyhJP2sozZv0GJ+uqVS6fMY79fYIgH6/AajD8h5/kycce0reSW1+jbO18Rv42xqVsMbM+o2bGu/fs1dEw8y1frqwaIF1tP8ZzEiABEggJgaCu4dolNkq3RfMmOhhKd+bsuXaUFD/HzMwWKNxABablNco0a6RWjeoy+Okn5OknHhV4NRsZP3GSnl1CyU+fOdsEazP7gH595PVXX5Bb1Rp3QoJ8otfFOLfv6X+nfDrkXXnnjVeUObqYDoeSGvrJF04c78moMb+7zOedO14vr7zwjNx7d181q8vkRP/sq2/1uZm1mhtGsW7cvNkE6SNmr1BcmIHbTKGwvYIy1qldU54b9Lg8/vD9ki1bVicKtmSBDyQY9UXaV6m8unXuoMtmt1P3rp1UOw3U9a9dq4ZThvkL/3HOeUICJEACoSSQIjPchCsQWq/lEydOuoqSN09u17U/F1ASRvKo5+8b0NcxHT/8wD3aq9ncx5prJTVztGd4vXrcJPXr1tFRWqstQNieZJtrMTCBrN+wSR/xBzOz4mrd1szMMCMb/sPP+r6t8JwHLp3YZUWenTtcp+/AjHv85hucNKBADx0+rGfKUMSYfUJiVBkqV6ooO3fu1tf2H5hrL1xSliYcs2SvwAHtXjVYMPuwb7mxmwz7boQTDSbvAmqGndz6Yi3+uUEDtWUCiWMwYMv0mXMkV66c2qqBLWqmjqZcdlyekwAJkEAoCKSYwsVM5pvhP+p1XFSk5dXNpEXzpqGok5OH1/S6L3a/c8/fk3VKiRqBMsV6rxHMcOHxjL21ECilbNmymdv6WLVKnLORCYQDkq1wTXjMhnhT7dZt2+XFVy83b5u4cETKlTOnudRHzEBtZVxd5WNLzerV7EutVPPmySNly5SSdTFxea9XgwswMgMG1M+kuWnzVkdpIaGCBQo4ys5OuEb1qo6yRbjXoez4iRNa4QZaXzsPnLdp3cKVP/wEYMHAR00gWEqwFT2sBG3btJJmTRrq+/xDAiRAAqEmkCImZV/KNtTrtwCJdVmsSRqxTbYmzD6OUeuPP/78q/r/N+3kg3tY2zSCGa5XMlum2hNKmRxRX5KyJYfnK1Jw9vElBw8e9hXsM8xXXNsTGw95Z/O2SRn3ofgg1apU1kf82agcnYzCwvW117TGQcumLVtknbV+W63q5eZkRMye3T3gyKrWtn2Jrzr4iocwX3GLFy16WfRHHhggFdQarS/ZsXOXUsA/ythLX/nyFYdhJEACJJCSBII+w4Wy/UJ90clssWnWpFHYPJQBrlTJEmJMrZitoVxmr7ANFl7E4ydMcoKua9tGnxctUsRxGjImXhMJM0FbIZcrW0YK5M9vbusjthJVKF/OCcOL35eUVltXUAbI1WoL0I03dPYVTYdltQYRJpJ3yxDKWr1aFXNbb2lyLtQJPmUJ0eu44/SpdpqC57URfKLz+xEj9eVmNcPFzNpIcrfYBFrf48fjBggmf19HWBueGviwXkuP2bBRtxu2MdmDiCnTZkgXtbZNIQESIIFQEwjqDBcKyKts77itR6jr5Mqv583dXdefK4ehiZOmyKlTcdtm4JmL9b4P/+8zV7xWl/bMli5V0gnH9hZbYY7740/nHk6wplmwYAFX2Ci1bcg4CiGv3/+IV+p2xEoVKziXS5ev0OfZlXka/2/duk1eee1t/f9/Xv+fnPWsVyIy1oJtJ66Jk+PriPxt72jMdrGOCvE6ki1VW5AgSCuz2qtstvFgsGJvNapslVc/EOCf5NbXmx22/jz7wn/0/+9++H9SrWplQds/+9Rj0rF9Oyc66mC2fjmBPCEBEiCBEBAI6gz3OzUbMjPbxg3rC5StcQoKQV18ZoFtNHA6wkcejPymvHnxv+0wZO7hCK/WApc+MnHdtW30t4/Nuuarr7+jzLCV1BrhIdesEWuacOQxis+sfWJ2/dRzL+ntPDhP6GVfR+WJPb0QmIexhos9tzBRg6nJv6L6gIP90Q79wKU/3dTHIMxXteAYNWjwy1KxfHn1EYwtLu9lzFyNwIkIgwrvdiRsn4Fgdu6d2cO0Doek5Eig9cU+3MQEzlqx++PX6DHwg5Xi3PlzsnDRYudR1NdeZnBu8IQESIAEUphAUGe4S5bGzY7wxaK+d/QKu7I17PCxCV97L43nqomHI76cdP+Au5wgKF542hqB4lu5eq1L2UL5PPPko059vbNqKD/MjqFsa6ovU/kSeCU/dP8A5xaewccisI3FKFsMEG66oasTx3sCz2R7Cwxmc5j52eu7mPnBc9oW7/Yg3CtfroyOAgXvlcqV4mfj3nv+XgejvnZecM7CdiQj2CL0/pBPZMjHXziOX7iHz49SSIAESCAcBDI8O/j5l4KVcZTyBIXXKz67F0nbL1AWeM/ihbxPmUaPnzju2kYChVlFbYe59ZYbtSe1d1ZeVq13Yj0UW1mOXfJIBjPM9LAPFPtsbSelwmqmixniCqVkjVLHrAprs7fc2NXlpYx/LcjMFvU/FajywgcsoHBtRQtF+cSjDzgm3oTaDLNirOfiX0WC57IRmIabNG4ofW7r6fK01vfVbi3zLyaZ+Jgt586dS1sBps2YbYL1sW2blnrrkgmcMnWmY6LHjNj+IAbWXqfNiLcuwFPdOJ8FUl/Uxfbubqrq4v1XndAW8CKH85dhZ8qIPLt37SjgTSEBEiCBcBBId+zkafW6TXuC2Sb2hEI5BWJixIsc5uIcObJftjXHF0U4GsEcatZMfcVJKAx7drHdxSiohOIlFA4lhW0+hQoW0OuxCcWLlPDk1teux7Fjx2X/gQO63vhsJTzWKSRAAiQQTgJpVuGGEzrzJgESIAESSHsEgrqGm/bwscYkQAIkQAIk4B8BKlz/ODEWCZAACZAACSSLABVusvDxYRIgARIgARLwjwAVrn+cGIsESIAESIAEkkWACjdZ+PgwCZAACZAACfhHgArXP06MRQIkQAIkQALJIkCFmyx8fJgESIAESIAE/CNAhesfJ8YiARIgARIggWQRoMJNFj4+TAIkQAIkQAL+EaDC9Y8TY5EACZAACZBAsghQ4SYLHx8mARIgARIgAf8IUOH6x4mxSIAESIAESCBZBKhwk4WPD5MACZAACZCAfwSocP3jxFgkQAIkQAIkkCwCVLjJwseHSYAESIAESMA/AlS4/nFiLBIgARIgARJIFgEq3GTh48MkQAIkQAIk4B8BKlz/ODEWCZAACZAACSSLABVusvDxYRIgARIgARLwjwAVrn+cGIsESIAESIAEkkWACjdZ+PgwCZAACZAACfhHgArXP06MRQIkQAIkQALJIkCFmyx8fJgESIAESIAE/CNAhesfJ8YiARIgARIggWQRoMJNFj4+TAIkQAIkQAL+EaDC9Y8TY5EACZAACZBAsghQ4SYLHx8mARIgARIgAf8IUOH6x4mxSIAESIAESCBZBKhwk4WPD5MACZAACZCAfwSocP3jxFgkQAIkQAIkkCwCVLjJwseHSYAESIAESMA/AlS4/nFiLBIgARIgARJIFgEq3GTh48MkQAIkQAIk4B8BKlz/ODEWCZAACZAACSSLABVusvDxYRIgARIgARLwjwAVrn+cGIsESIAESIAEkkWACjdZ+PgwCZAACZAACfhHIKN/0fyLFR2zXmJjD0iTRvUlffrI0OVjxk2Qo8eOJViBLFkyS5HChaVSxfJStEjhBONF2o3xEybJwUOHdbHq160jVSpXDEsRfxk1Vk6dOq3zbtakkZQtUyos5bhSpqdPn5aRv411onVsf63ky5vXueYJCZAACaQ0gaAp3IsXL8qHQz+Ts2fPyproaOnX53ZJly5dSpf/iulPnzVHjh8/fsV4iFCrRnW5+67ekiVLFr/ihzMS6nX48BFdhGzZsoZN4U6bMVu3OQqCAUukKtwzZ87KzNl/O02GQQoVroODJyRAAiEgELRpKJRrk0YNdJEXLFwsX3/7g0AJ/5tk+cpVMuy7Ef+mIrOsJEACJEAC/xICQZvhor69etwoJ0+elIX/LJF5CxZJhgwZ5I7bekTETBflK1yooFzTugVOtZxUptDo6Bg1I19ngmTR4qXS5/aeET/LvadfHzlx4qQud5F/kSncAR3ik2zZssmD9/Z3ci0ZVdw55wkJkAAJhIJAUBUu1m379+2tyw2lO2fufH0OBRYJAsXUuuXVrqJ0uK6tfPblMK1ozY1tO3ZKhXJlzaUySZ8QrE+vXrNW9u3bLwUK5JeqVSoJzJK+zOax+w/IsuUrZZWKnz17NqletYo0blhfVqxaLetiNuh0y5UtI3Xr1JLTZ87IuPETnbyubdNK8uTJ7Vxv2bpND2AQkCN7dmmvygvZtHmrHD4SZ1JGHkUKF3KlhcHODV06Cmbtq9esk6NHjypz+R36WfwJtE7Ib/mKVbJx02YpVKiANKxfT697Owle4WTylOlOedu0aiHH1Lr6MpXeli3b9EAtf/58OoVz587J+g2bZPXaaH0vd+5cUrp0Sbm6aWNnELR7z16ZNWeukyPWjosXK+pcH1Jr25OnTneuGzWoL0WKFJJ16+PY40bpUiWd+zjxJ99du/c4fRrPXNe2jeTKlROnOhz3IegT3bt2cvoG1ttPnjql74FbqZIl9Lk/eSKi3UcSa9ejR4/JoiVLZefOXYKy5M2bR0qWKKGWSqpJMYuPzpx/SIAEQk4gqAoXpcfLBko3Y8aMMnf+Qv0iwvltPW8KeeX8zbBUySiXwoViMwIlM+STL8ylc5z99zwZ+/sEefG5p3RdzQ0o5v+9P9Rc6iNM7NNnzpECSqlgBg2pVrWyVrhnTp+RSX9N02H4U6NaVZfC3bh5i3MfAxqjcCdNmeas4YJ5hfLlxJtW5syZBE5jEDx7tz4TrTgDqdNYNSD4/Y8/Lz0tyiIgaj10rnS8vp0TdqUTu7wZ1WDgjz//ch7p2rm9QOHuVwOVl157S+DgZMv8hf/IL8rh6ZUXntFWipw5cggUuJHz589Lz5u7m0s9QLHvY7DjZWNz9jdfKDu7raC0G9S7Suf7y6hxLl+BFs2bSKGCBdXA4riMUf3ECAZfEH/zRFxv2X2164JFi+WrYd/LhQsX8Igj6Hu/jh4nN3fvKtde08oJ5wkJkEDoCQRtDdcuOhTAnb1vddZ0ZygHn+9H/GJHiZhzrDMv+GexU54c6mVerGgRfQ3l6Usxmch79u7Ta9Xm+sDBQ9pxzFzbx01KcRpla4en5LlRtnYegdYJM2Rb2dppjZ84yXGYssOvdG4rWxMXDmD/efPdy5StuQ9F8u4H/ydnlEUgZ84cyjmrtLklS5etdM5xsnT5Cuca1oKSUXEzSifQOgkkXyxJZMqUyXl6/YaN+vyUmr16HfNgEYDAImBLuXJl9EDJ37raz5pzb7uiD8P3wChbDK5goUFfNjLytzECywCFBEggfASCPsM1VTFKN1OmjHo2BKWLFx9G/uGSHTt2CWZrRg4qBQklaM+o7FnAV998b6IKTMBYA4T5FjMuOIVBYDpv1KCe1KpZXa9bw0vbCLyeu3XpoNe1f/jpV9mhTH2hFu3BXKmio6ACrdOfk6e6ityl4/XSqGE92bs3Vj77apiqW5yp1BXJjwsohcqVKkhUieJ65o8tO0ZpocxPPf6wlCheTGBSf+vdj7RiP3DwoJqt/S633tJdmjdtpMzqW3ROCD90+LDkzZNHm4Zj1scpQtxsrMzJicnocX8ElG9ltX1s5eq1OsmYSwp3szKLe2WzUrgN69d1mbFh9s+SObOM+Pm3gPL0po1ru12h+O1+99ygx/VvDSbrJ599yckLfbVzh+t8JccwEiCBEBBIMYXru+zh9VrGizmh2RrK2+/O27XyxDmU8MFDh3CqpZsye2I/L/4vU7qUfuEZZbNZKQUo3K1bt5voenZx34C+2nEMgQMfeUAeHzTYuR+KE7zgnxs0ULJmzaKzS0qdtqv1bCNX1a4pnS69sGEuvbd/X3nvo4/NbbWeEH+a2BmU7YvPPulaV4yx1ldbNGuqTeBYh8ysFFTN6tVk8dJlOsnNW+JmjvXU+vnwH352slm+YrUezEWvW++E4aRJ4zjPeVegdRFovlWrVHYU7vbtO/Ws0ih+K1nBUgDEVv7VLpmTA83TThfn3nZdazn94T7M7y1bNJPSaqnktZefk/PnziNYsYyfnesA/iEBEggpgRRTuDBzfTP8R72Oixq1vLqZeiE2DWnlAs1sxMhRao2wkJoNlnJmTyaNdz+0FIsJvHTEehxk+44dl0JEKlYo5yhbBMIMCseenbt2O3FS+qSN8sg2yhZ5eRXDleqED1qYQQWeNwoD5xDMUJMiWD+1nXgwE9u7L9ZJ6s+/pgr+9yUYNEGyK69jfKzEOKHBjAzriW1Oxj5b25nKm15S8vXWGe1plKvZv42Bzbb/b+884KsqtjU+hKB0aSJSkkAABaTYRUCqgAKKihXFgpenXizYsF/lKj7hKuqD5/VefeoVFTv2jiBFbIBI7xCaSpAeEZA338Q1mb05Sc45nuzsnPPN70d2m71n5j9hf3vWWjNZu85Mi8MIXVILvThJPGXK/bL19yvM6/iIEZMyou4l8h7nsShK39N6Gj+/PINbEiCB4AmUiA83ktiGIWgKIwNMU5J/iOKFqVgSTJqfTppsDjfl5r/Y5VpRW/hukdwVrdzAK7m3YsWKslvoFuzctP9377F7rbj9+vXqebLE2qYdmoebqlQpCCbDebzM40n163vrtW3b9qgfg0hcSYhOlrRAR3KBHUa6koob3cZTLtwibrthVpZRd2ZGQx393NAUDxPv4iVLrQjiJD4Q4ilT2iNbf79C6IffdH3EhTwgwmADs/wiPQWOiQRIoPQIJHyEi5feU888b6ey4KUYBrEF4rpacDvq6SVu6t2zu7r97r8rGTktWJQ/J9e/YtKokfca86Z7r+wjehUJI6q8vPwRbCR/7YaNB45u4et2U+5mr9BHeo6bP5b9WNuEaGI3oS6YCiVJRvZyHO8WEcoIRhI/JKYvtWp5ZMTHpTm8MK1KfOkQFky7ct0AshBLxAfpk/GUi/6CS0GCoebPX2SjxbN1oFJauTQ76nYjmvG7UVlHv+NfPG0trA1yHn370AN/MyPr5StWad/3GrVw0VL7e418n0+ZWmorkkk9uSWBVCaQUMHFS+/pZ8d7xBajyTAnvEAxKhHBRRQsEkyRrplu1uy5qluXTuYaPioQvYwgLKSunTuqXqd20/NT61iTMUY98NU1a5pt8mAakWueNSf1D4wa3XJm6LnLCAhC+nnTJhOIZQ4S8COeNmH0JEFlkyZ/YRhUq5o/9xTrKCcqZem5tuLvxKIp7hxnRENPnTbTFJWh++qaIVeYfdQN06swgkN65bWJZosfdWrXNr5Oe6KQnXjKxRxsEVxEcUvKbpzlGf1KcBWuu2tdx1OmlBFpi8AvTP9Bqlu3jrph6FV6r4M5fnD0o9aVkMiPN/Nw/iABEoiJQEIFd/yEV63YYu5jmFaZKoqKjFDdPBDidm1a22CdCa++YUyEGCXPm7/QE3HcvFm+LxOjeSx4IWn0mLHGjLhLr76FAJtICeVgGpK8DJetWKnuuOd+PYeztllsQ/xyke6N9Vw8bTpZBx1hvWQkfDDcdtcI47vFx4Y7moy1Lv78+H0Rwf1h3gI1ctQYI6Y5OWttkBLu8Ue5g7kIrusHRr2jSfGU2+KI5gqLWfiT+FL953GMDwNJ8ZQp90bawn2xKTfXXMIWU4AQ4IYFWFwfcs2a+YuLRHoGz5EACZQ8gYQK7uw5+fMfMU3m8kEX2ZV2Sr4Zf66EtPJp9gFYREESFvAYPWaLHSHM/r5gfqfkwcIHYqpt1+YoM5VFxBN5JKgHZkQsfBFpLiTM2rAMSMJLU16gx7Rra0Vfrv+Zbaxt6ntaLzVl6gzri4TZFx8cSFgwBJHEYgr+M/Xq1KG9CZySaUgQClcs8GzMg+2io2/dhI8i10Ig14ozJ0u+eMpt0rhgDrA8B9N0ZNUpzH+VKU5y3Q22iqdMeU6kLZ7nLiyCRT/chT/knvMH9JddbkmABEqBQIHSJKDwwZcO1Cv+nFWmxBbNrl2rlm09RpQSmJOeXl5P57nGmIzxsncTfHJYstJdLhHXb7vlBo+fE+cwn/TmG4ZqM2dBOTgvCR8o5w84y0w1knN4eV984bl6Schj5ZRnC19hPCnWNqEe9997p2mDlAeBwyhv2LVXm3nJcr6obTT1Pad/P3XeOf21ib+RxzQLAcNykPfdfZvxgbrlYJ43op7dhOA4LL8ZbYq1XKyc5o9+zsrIsMVlN86y+9hB/TFH2E2xlune699HJPpdw28yy4f6r+EYPG+87moz5znSdZ4jARIIhkC5HXm74w+DDaaOoSklfx7rVuMfhHAVlSDcuZs3q+rVqtk1gB8f96Q1j8LEmO9r8z4FCzjARwxBDyLF0ias6YvFQvDxAdEtyQR+MBHX0CtFRRPdnai6lEa5iSwTvzvoo6068rtq1cqaXw0dpJVQQ1aiUPM5JJByBPg/MYYuR5BOtH+kHoKExSFiTf6RUKz3x5o/ljZhlaRo2x9rPfz5wS+ostyyS6PcRJYJPz2ir/GPiQRIIFwESnaYEq62sjYkQAIkQAIkUGoEOMINEP2JOhK3vvbnIhW1oH6AVWJRJEACJEACARGgDzcg0CyGBEiABEggtQnQpJza/c/WkwAJkAAJBESAghsQaBZDAiRAAiSQ2gQouKnd/2w9CZAACZBAQAQouAGBZjEkQAIkQAKpTYCCm9r9z9aTAAmQAAkERICCGxBoFkMCJEACJJDaBCi4qd3/bD0JkAAJkEBABCi4AYFmMSRAAiRAAqlNgIKb2v3P1pMACZAACQREgIIbEGgWQwIkQAIkkNoEKLip3f9sPQmQAAmQQEAEKLgBgWYxJEACJEACqU2Agpva/c/WkwAJkAAJBESAghsQaBZDAiRAAiSQ2gQouKnd/2w9CZAACZBAQAQouAGBZjEkQAIkQAKpTYCCm9r9z9aTAAmQAAkERICCGxBoFkMCJEACJJDaBCi4qd3/bD0JkAAJkEBABCi4AYFmMSRAAiRAAqlNgIKb2v3P1pMACZAACQREgIIbEGgWQwIkQAIkkNoEKLip3f9sPQmQAAmQQEAEKLgBgWYxJEACJEACqU2Agpva/c/WkwAJkAAJBESAghsQaBZDAiRAAiSQ2gQouKnd/2w9CZAACZBAQAQouAGBZjEkQAIkQAKpTYCCm9r9z9aTAAmQAAkERICCGxBoFkMCJEACJJDaBCi4qd3/bD0JkAAJkEBABCi4AYFmMSRAAiRAAqlNgIKb2v3P1pMACZAACQREgIIbEGgWQwIkQAIkkNoE0hPZ/MVLl6lNmzar9icep9LSwqHlb73zgdq+Y0fEZlavXk0dXu8wdUTzpqp6tWoR8/BkyRGYNuMrtWr1GlNAs6ZN1InHH3tAYcuWr1Azv/7Onj+mXRvVssUR9jg3d7P64OPP7DF2zujb29Of33w3Wy1esszm6XVqV5WXt1t9MW2GOXdQhQrqvAH9zb6bF78b3bueYu8rbMe9p1HDBqpzp5MLy8rzJEACKUwgYYK7f/9+9fi4f6k9e/aohYsXq8GXXqzKlStX6mgnT52udu7cWWQ98HFwWs8e5kUdhjoXWdkkujhr9hw1b8Ei06JNubkRBXfv3r1WGJERfekKLu4X4RQ0+IA6/tij5VB9OmmKWrlqtT3u0a2z2rjxR899Irjz5i9UX371jclb99A6UQmue0/DhvUpuJY0d0iABFwCCRuGQqjan3i8efbX38xSz/znRQURLgvp999/V+99+PEBI6WyUPdkr2NWZqaniavXrPUcL1+x0nOMA/+59Rs22jz4uKp3WF17zB0SIAESCIpAwka4qPBF55+jTXV5Cia2mV9/q8qXL68GDTw/FCNdAXpGn95md9euPD0SX6LWrd8gl9TEt99TXU7poCpXqmTPcad0CVSseLA65JDqauvWbaYiGAnjA0lcFitWrjqggsuWF4gwRsS7d++2eTIzGpn9Fi2aq6FXXWnP/5md3j27q2OPbmseUaVK5T/zKN5LAiSQxAQSKrh4CV55+SUGF0R3+pdfmf1LL74gFAhbH9VS9T29l6cuTz87Xn31TYGPMCdnnfHpItPOnbvUD/MXqLk/zFd7tGmzcVam6t6lk9q8+Rc1febX5jlVq1RReOFKwst9/sLF6od5C9T27TtUq1ZHqmPatlE7d+1SM/645+CDD1b9fPWA6RRCsWDRYrV6dY6Cfzkzs5HqdPJJCvn9CR8KMGViu/mXX8yorWGDBurYY9qqalWr+rMfcBxr2z75bLLaui1f9GCuraf9m+CCOsBHntGooerRtbOqWrXKAWVt0n7W7+fO01wWqcqVK6lWLY5UJ51w3AH5CjvRLLuJ+nbWHHt5gzYHN6h/uNq7d5/66edN9rzsrF233lhXYHXJWbteTpttU/0spG3btqsly5ab/Qrah9umdSuzX9QPiPusOXNtlsPqHqo6dWivfvzpZ913K8x51Cu7SWObZ9++feYDFPVYt369Si+frjIyGqrm2md95BHNbT7ukAAJJD+BhAoucOElB9FNT083vjCILvYHXjAglDTx4ncFFy9z+AC3bd+u7vzbA57REUTjo08+U716dFMff/q5aQ9e1iK4e/bsVQ889Ija+ONPtq1z5803I+ee3bvae/Bh4gouAn/ufWCUpyw8APV67Y231Yh7blfwJ0qa8OqbatLkL+TQbJcszReP1ye+Y0ZuaENhKZ62ffzZ53aUWblyZfXiy697/KIQXojy3bff7DHZIpDu4UfHeaoCl8PkL6YrjF6jSRBJV3DX5Kw1gpuzdp29HUwx8kXCFv1Y//B6WnAL8uAagrOQ1q3bYPsDx2f2PQ2bQhOeM+qR/7FloLw7bh1m8s/WIix+X/hwxbUC4X9s3JOWmzwcvxNI+HC57JKLVIUKCf9vKEVxSwIkECICCfPhum2C6F52yYX2xTNFBy69MOE1N0to9n/elOupC0YoeGGPefyJAwQQGfPyflUT33nfc48cPPnUsx6xlfO45613P5BDzxam0vu1SLtmTzcD6vLIY/+rfvvtN3MaL3FXbKvoETZEBAKAhOeM/edThfrP422befgfP97WbXGDkOQaAuaef/FlOdQj7y0mkM6ecHZw/8JFS5wzhe82zS4YMSLX6jU5JrNrTkYeCKwk8eOuzsnPK+ezG2fJbtRbjKL/+x+PecR2+E3Xm1F9UQ959Y23PGILK4DrP4YVaOr0L4t6BK+RAAkkEYES+7QW0cXX+xfTvlQQXUyZOKVj+1LD5wZx7dK+5iV6qgheim5q0jjTjIpc326tmjXV4MsGqkrat4uRLfzT/gTToYxccK1atarqlmHXqjq1a2uTYn4Qmf8eHEO8JYq6UqWK6tYbrzOjN4gKRlQQMZiMX5/4rrrwvLM9Iz2Mrv/x4H3GVw6z5t33jTRFQHSXa/NnU8e0KWVjpBZr2+Re2UK027Vtrfr0PtV8gDzx7/8zW1xfumyFNeeCE+ovqc1RrdRZZ/YxwvWfF162winXC9s2bFDfc2nlqjXmWEQVB82bNdUm/O1KAqRgnoe5d40TZAW+6JdY0pYtW7XV4mHbDnzY3DxsqHYvZBT5GLgI3A+Ks8/say0h45582pjY8QBYMbppNwUTCZBA8hMoMcGNjG5/5NMBnYXZc8hf882AkYqEKRCBXjBZugkv2Dq1a5lTlw+6yIzuIHBukhe9nMO0KBnN4Lnwd343+3u5bLdL//Aj4sQpHU42I1WYQw866CDVulVL7TPMv0fmq+7TfktJELNXXn9LtdX+x0aNGqiHH/q7Un8ghrhESvG0zf8cfIBcdeVldlR93jn91XPjJ9hs8HHX1rxcscNI/Oohlxu+yDjs2qvUjcPvLhg1aqtIYQkih9GrMJbt8hWr7C1HaMGFqXzK1Py5tSLGro/X9a3aG4vYyfv1V/Xg6EftxwSyDrvu6ogfMkU8xlyCCR1in5WZYabMyYeIWCaKu5/XSYAEyj6BEhNcjCafff4l69vq3KmDHt2Gd0EAiCLM4EhuoA0ClkRscQ0jdwRf/ajndrrJL2QwH7qpSeOsAwQXoyBXED76dJLCv0gJo1ykNq1bevJ8PmWqwj8k1PU4HTTV9/TehY7k4mmbebjz46hWLazY4rR/BIoAMQju2nUF/lOYvfExIwl+4Pr166m1vqAmue7fwo8rQosR/JatW9UvW7bYbBhxIvJcErjCN47RuCQJmJLj4rYIenMTPmKaZGW5pwrdR9wCxFU+lNB/7kcJXBc9unVRHdqfUOgzeIEESCC5COQ7/hLcpkhiG5agKUSW4h+CkLCAQv9+p2vT71CFkSvEFGmrfplLijRFKNI5jEjdlPdrwcsf5yP5aBEpG22Sl3+zptlmqhXMyf6EMqZ/+bUaMXKUjiiO/Ox42uYvB5HGbqpYMfJo2l3hq4oWWH86qIKXmf+6e+z3487Q7ZSEvgT/GjUO0Wb/grpIIJPka+bzBcv5aLfwxb8+8e1os6vr/zqk0NEwzPrPjX9Jvf3eh1E/jxlJgATKNoGEj3Ahtk8987yZCgE0HdqfGJoIZYxMr736L8X2WJ06tW0ejKLQJhFjXFirI1z9yY0ixrXvZn1vfXYYZbmR0HJvrVo1dYRqBesf/MsVg1SrlkfKZc82zTG5dtRThU4+6QTjL0XwEfy9WHFJRB3C8P3cHyJaFOJpm6ciMRzUrFFDm2M3mjtcv7E8YsPG/GtyXNQ2u0mW57KYjnES/ltJMBvDdYA0dfpMOW22MgfXc7KYA/QPpn7JaHrS5KkmGDCaZ8GMfutN15lpZEv1tCH01YqVq+2oF0V/9vkUJXPDi6kKL5MACZRxAgkVXAgL5rUi+hIJYouFL8paOrROwRQc1P39Dz9RfU7raZoB4ZijxcyfsO6uK55vvPWuNntuU4dq8YbY+n2+cn+WnmuLQCMkBBkdd0w7K+5Y/WrqtHzRwNzNa4ZcYaKnJbK6/UnH2+lFME8PHTbcmlAjfRSgjHjahvviSYfqkaeYgWFahb8aI3SkaTNmenyjxT0f9Xb5igDiPncKVHP9fBFcNw/8zn4rRHFlwr96+y03mGwjRo622Z/41zNq5Ii7PGZ1e/GPHQTQTXjlTXOUllZODb/5ert0JSLW3/vgY3MNH0f4UIo019r/TB6TAAmUbQIJFdzxE161Yov5rWFbZSrarsKqQS++XDCNCS/I73TwEkzJiH51/YLyTLzMMZfztTcLTI7u9B13tSS5B1twEsHFYhkjR40xpu4cHbgl6wwjn43u1lZvrLaEhJc2/uhCwwaHq0WLl3rqVatmDZPH/yOetvmfEe0xPrgwd1nS6DFj9Wg0WyFCPFrfrdyLbab2iy9bUbCKlFwTEcexzLOVa7It7Lxcj7SF71780926nGKnY8EfC1Mw3BGFJQi89BPywOqD+dt79+1V33w7y94GUafYWhzcIYGkJpBQH+7sOfkjP/zVF9cnWtYIIpq0Z4+unmpDILC4BMQWohEpndq9izqz34ELKCAgC38cQZIbPISpK71O7SaXjHn4g48+9YgtzNVYchJpwFln2JEV6vKC/sh56OHHPfN8Ie5dO3e0z3R34m2b+4xo99u1OcpMcXLzgyFYYrSKRSJiSc0icIdYuR8XmRmRp+vEGjDlr9c5/fspmIglweqxwVmjWc7LFkKNqVOSMEXo0bH/VGOfeMoTKIflUJlIgARSg0BCR7iDLx2oXyY/a3HoaM2iZRUjhA2+O8yTlREtfJL9+vRSv2oToKzs5LYPft4+vXua6FPMd92rp+1kN2mixSVdz/ctGPm6AoH78TI/pHp1Y3rGfVIeXvD4eDn37DNshC/mMsPM+dIrb2h/4Cq3eLN/tH7JD9D5ixo1xdO2tHLxfZvdpuv6nI5Wd1eKQoTuoIEX6NWmpsU00o00r9gfCJWeXt5Mx3JX+wIYvw84rXzk9hQ2TQd9+F+DB6lH9IIokv797PPqnttvsR9Acl62Q7RP/kP9pwPx5wNlGpBcw0fR6b16RPSzSx5uSYAEkotAuR15u0t3cmwZ4Il5pen6hVvc38y94577rRkRfxN14AXnmtZhNakRD442ayvjBPy0QwZfGrHlEFtMaamhX8iFRf/KjVhsA/5c+AAh2Fh/uTDBkHv822jb5r8v1mNpV00dSVzUx0Cszy0r+Xfs2KlyN282fmR8uEW7rGVZaR/rSQIkUDwBCm7xjKLOAb/eu+9/ZPNjhFpJT5lxfXm4eOfwG1U0Ua72QdwhARIgARIo8wQi29XKfLNKpwG9tN9X/kwbaoAlG/1ie9H5Ayi2pdM9LJUESIAESpUAR7glgB8Rw5h3CX8s/ugATIiYNoRVhdzAmxIomo8kARIgARIIKQEKbkg7htUiARIgARJILgI0KSdXf7I1JEACJEACISVAwQ1px7BaJEACJEACyUWAgptc/ckXg580AAABe0lEQVTWkAAJkAAJhJQABTekHcNqkQAJkAAJJBcBCm5y9SdbQwIkQAIkEFICFNyQdgyrRQIkQAIkkFwEKLjJ1Z9sDQmQAAmQQEgJUHBD2jGsFgmQAAmQQHIRoOAmV3+yNSRAAiRAAiElQMENacewWiRAAiRAAslFgIKbXP3J1pAACZAACYSUAAU3pB3DapEACZAACSQXAQpucvUnW0MCJEACJBBSAhTckHYMq0UCJEACJJBcBCi4ydWfbA0JkAAJkEBICVBwQ9oxrBYJkAAJkEByEaDgJld/sjUkQAIkQAIhJUDBDWnHsFokQAIkQALJRYCCm1z9ydaQAAmQAAmElAAFN6Qdw2qRAAmQAAkkFwEKbnL1J1tDAiRAAiQQUgIU3JB2DKtFAiRAAiSQXAQouMnVn2wNCZAACZBASAlQcEPaMawWCZAACZBAchGg4CZXf7I1JEACJEACISVAwQ1px7BaJEACJEACyUWAgptc/cnWkAAJkAAJhJTA/wNeNPaTkzW5WgAAAABJRU5ErkJggg==;" vertex="1" parent="1">
          <mxGeometry x="330.96" y="462.37" width="151.88" height="127.63" as="geometry" />
        </mxCell>
        <mxCell id="PWbmjM3-0HegXmuuQ3uZ-46" value="3.67$ per month for the first yeat&amp;nbsp;&lt;br&gt;*&lt;b&gt;Discounted pricing is for new yearly&amp;nbsp;&lt;/b&gt;" style="shape=partialRectangle;html=1;whiteSpace=wrap;connectable=0;strokeColor=inherit;overflow=hidden;fillColor=none;top=0;left=0;bottom=0;right=0;pointerEvents=1;" vertex="1" parent="1">
          <mxGeometry x="500" y="139" width="70" height="127" as="geometry">
            <mxRectangle width="155" height="127" as="alternateBounds" />
          </mxGeometry>
        </mxCell>
      </root>
    </mxGraphModel>
  </diagram>
</mxfile>
